<svg width="80" height="98" viewBox="0 0 80 98" fill="none" xmlns="http://www.w3.org/2000/svg">
<rect width="80" height="97.5824" rx="20" fill="#75BEA1"/>
<path d="M40.9583 58.6667C42.1187 58.6667 43.2315 59.1276 44.0519 59.9481C44.8724 60.7685 45.3333 61.8813 45.3333 63.0417C45.3333 63.4284 45.487 63.7994 45.7605 64.0729C46.034 64.3464 46.4049 64.5 46.7917 64.5C47.1784 64.5 47.5494 64.3464 47.8229 64.0729C48.0964 63.7994 48.25 63.4284 48.25 63.0417C48.25 61.1078 47.4818 59.2531 46.1143 57.8857C44.7469 56.5182 42.8922 55.75 40.9583 55.75C40.5716 55.75 40.2006 55.9036 39.9271 56.1771C39.6536 56.4506 39.5 56.8216 39.5 57.2083C39.5 57.5951 39.6536 57.966 39.9271 58.2395C40.2006 58.513 40.5716 58.6667 40.9583 58.6667V58.6667Z" fill="white"/>
<path d="M40.9583 52.8334C43.6658 52.8334 46.2623 53.9089 48.1767 55.8234C50.0911 57.7378 51.1667 60.3343 51.1667 63.0417C51.1667 63.4285 51.3203 63.7995 51.5938 64.0729C51.8673 64.3464 52.2382 64.5001 52.625 64.5001C53.0118 64.5001 53.3827 64.3464 53.6562 64.0729C53.9297 63.7995 54.0833 63.4285 54.0833 63.0417C54.0833 59.5608 52.7005 56.2224 50.2391 53.761C47.7777 51.2996 44.4393 49.9167 40.9583 49.9167C40.5716 49.9167 40.2006 50.0704 39.9271 50.3439C39.6536 50.6174 39.5 50.9883 39.5 51.3751C39.5 51.7619 39.6536 52.1328 39.9271 52.4063C40.2006 52.6798 40.5716 52.8334 40.9583 52.8334V52.8334ZM53.7188 70.2022C53.6385 69.9681 53.5001 69.7582 53.3164 69.5924C53.1327 69.4265 52.9098 69.3102 52.6688 69.2542L43.9187 67.2563C43.6812 67.2025 43.434 67.209 43.1997 67.2752C42.9653 67.3414 42.7513 67.4653 42.5771 67.6355C42.3729 67.8251 42.3583 67.8397 41.4104 69.648C38.2651 68.1986 35.7448 65.668 34.3083 62.5167C36.1604 61.5834 36.175 61.5834 36.3646 61.3647C36.5348 61.1905 36.6587 60.9764 36.7249 60.7421C36.7911 60.5077 36.7976 60.2605 36.7437 60.023L34.7458 51.3751C34.6899 51.134 34.5735 50.9111 34.4077 50.7275C34.2419 50.5438 34.032 50.4053 33.7979 50.3251C33.4573 50.2034 33.1057 50.1155 32.7479 50.0626C32.3793 49.9771 32.0032 49.9283 31.625 49.9167C29.8458 49.9167 28.1395 50.6235 26.8815 51.8816C25.6234 53.1396 24.9167 54.8459 24.9167 56.6251C24.9244 62.579 27.293 68.2869 31.5031 72.497C35.7132 76.7071 41.421 79.0757 47.375 79.0834C48.256 79.0834 49.1283 78.9099 49.9422 78.5728C50.7561 78.2356 51.4956 77.7415 52.1185 77.1186C52.7414 76.4957 53.2356 75.7561 53.5727 74.9422C53.9098 74.1284 54.0833 73.256 54.0833 72.3751C54.0838 72.0039 54.0545 71.6333 53.9958 71.2667C53.9345 70.9045 53.8418 70.5483 53.7188 70.2022V70.2022Z" fill="white"/>
<path d="M22.0897 18.516C22.0897 18.3947 22.1244 18.2993 22.1937 18.23C22.263 18.1607 22.3584 18.126 22.4797 18.126H24.5727L24.5597 17.606C24.551 17.606 24.5424 17.606 24.5337 17.606C24.2044 17.4933 23.914 17.3373 23.6627 17.138C23.4114 16.9387 23.212 16.696 23.0647 16.41C22.926 16.124 22.8567 15.799 22.8567 15.435C22.8567 15.0797 22.9217 14.772 23.0517 14.512L22.4017 14.525C22.2804 14.525 22.185 14.4903 22.1157 14.421C22.0464 14.3517 22.0117 14.2563 22.0117 14.135V13.199C22.0117 13.0777 22.0464 12.9823 22.1157 12.913C22.185 12.8437 22.2804 12.809 22.4017 12.809H24.5077L24.6247 11.964C24.6594 11.704 24.8284 11.587 25.1317 11.613L26.4447 11.756C26.748 11.7993 26.865 11.9727 26.7957 12.276L26.6917 12.796H28.6807C28.8974 12.796 29.0057 12.9043 29.0057 13.121V14.044C29.0057 14.2607 28.8974 14.369 28.6807 14.369L28.0827 14.382C28.1694 14.5293 28.2344 14.694 28.2777 14.876C28.3297 15.0493 28.3557 15.2357 28.3557 15.435C28.3557 15.799 28.282 16.124 28.1347 16.41C27.996 16.696 27.801 16.9387 27.5497 17.138C27.307 17.3373 27.021 17.4933 26.6917 17.606H26.6787V18.087C27.0254 18.0697 27.3677 18.0523 27.7057 18.035C28.0524 18.0177 28.399 17.9917 28.7457 17.957C28.971 17.931 29.0967 18.048 29.1227 18.308L29.2007 19.088C29.218 19.2093 29.1877 19.296 29.1097 19.348C29.0404 19.4 28.9494 19.4347 28.8367 19.452C27.8054 19.582 26.774 19.673 25.7427 19.725C24.7114 19.777 23.6237 19.8073 22.4797 19.816C22.3584 19.816 22.263 19.7813 22.1937 19.712C22.1244 19.6427 22.0897 19.5473 22.0897 19.426V18.516ZM26.0677 24.171C25.799 23.9543 25.5867 23.6943 25.4307 23.391C25.2834 23.0877 25.2097 22.7497 25.2097 22.377C25.2097 22.0043 25.2834 21.6663 25.4307 21.363C25.5867 21.0597 25.799 20.7997 26.0677 20.583C26.345 20.3577 26.67 20.1843 27.0427 20.063C27.424 19.9417 27.84 19.881 28.2907 19.881C28.7327 19.881 29.14 19.9417 29.5127 20.063C29.894 20.1843 30.219 20.3577 30.4877 20.583C30.765 20.7997 30.9774 21.0597 31.1247 21.363C31.2807 21.6663 31.3587 22.0043 31.3587 22.377C31.3587 22.7497 31.2807 23.0877 31.1247 23.391C30.9774 23.6943 30.765 23.9543 30.4877 24.171C30.219 24.3963 29.894 24.5697 29.5127 24.691C29.14 24.8123 28.7327 24.873 28.2907 24.873C27.84 24.873 27.424 24.8123 27.0427 24.691C26.67 24.5697 26.345 24.3963 26.0677 24.171ZM30.0457 19.894C29.7857 19.894 29.6557 19.764 29.6557 19.504L29.5777 12.77C29.5777 12.51 29.7034 12.38 29.9547 12.38H31.5407C31.8007 12.38 31.9264 12.51 31.9177 12.77L31.8657 15.071H32.9057C33.0444 15.071 33.1527 15.1143 33.2307 15.201C33.3174 15.279 33.3607 15.3873 33.3607 15.526V16.592C33.3607 16.7307 33.3174 16.8433 33.2307 16.93C33.1527 17.008 33.0444 17.047 32.9057 17.047H31.8267L31.7877 19.504C31.7704 19.764 31.6404 19.894 31.3977 19.894H30.0457ZM27.1467 22.377C27.1467 22.6803 27.268 22.9187 27.5107 23.092C27.7534 23.274 28.0567 23.365 28.4207 23.365C28.7847 23.365 29.088 23.274 29.3307 23.092C29.5734 22.9187 29.6947 22.6803 29.6947 22.377C29.6947 22.0737 29.5734 21.8353 29.3307 21.662C29.088 21.48 28.7847 21.389 28.4207 21.389C28.0567 21.389 27.7534 21.48 27.5107 21.662C27.268 21.8353 27.1467 22.0737 27.1467 22.377ZM24.9887 16.059C25.1707 16.241 25.422 16.332 25.7427 16.332C26.0634 16.332 26.3147 16.241 26.4967 16.059C26.6787 15.8683 26.7697 15.6343 26.7697 15.357C26.7697 15.0797 26.6787 14.85 26.4967 14.668C26.3147 14.4773 26.0634 14.382 25.7427 14.382C25.422 14.382 25.1707 14.4773 24.9887 14.668C24.8067 14.85 24.7157 15.0797 24.7157 15.357C24.7157 15.6343 24.8067 15.8683 24.9887 16.059ZM37.3568 23.976C37.0621 23.9847 36.8368 23.911 36.6808 23.755C36.5335 23.599 36.4555 23.3737 36.4468 23.079L36.3688 20.245C36.3515 19.985 36.4771 19.855 36.7458 19.855H38.1758C38.4271 19.855 38.5528 19.985 38.5528 20.245L38.5268 22.104L43.4928 22.156C43.7441 22.156 43.8698 22.2687 43.8698 22.494V23.482C43.8698 23.7507 43.7528 23.885 43.5188 23.885L37.3568 23.976ZM42.1408 20.349C41.8808 20.349 41.7508 20.219 41.7508 19.959L41.6728 12.77C41.6728 12.51 41.7985 12.38 42.0498 12.38H43.6358C43.8958 12.38 44.0215 12.51 44.0128 12.77L43.8828 19.959C43.8655 20.219 43.7355 20.349 43.4928 20.349H42.1408ZM35.1598 19.01C34.9171 19.01 34.7265 18.9407 34.5878 18.802C34.4578 18.6633 34.3885 18.4727 34.3798 18.23L34.2108 13.589C34.2021 13.3463 34.2671 13.1557 34.4058 13.017C34.5531 12.8783 34.7481 12.809 34.9908 12.809L39.5668 12.783C39.8095 12.783 40.0001 12.8523 40.1388 12.991C40.2775 13.1297 40.3425 13.3203 40.3338 13.563L40.2298 18.178C40.2211 18.4207 40.1475 18.6113 40.0088 18.75C39.8788 18.8887 39.6925 18.958 39.4498 18.958L35.1598 19.01ZM36.3428 17.216L38.2278 17.203V14.577H36.3168L36.3428 17.216ZM46.6342 22C46.4175 22 46.3092 21.8917 46.3092 21.675V20.505C46.3092 20.2883 46.4175 20.18 46.6342 20.18L49.0912 20.141L49.0652 19.179L45.7502 19.244C45.6289 19.2527 45.5335 19.2223 45.4642 19.153C45.3949 19.075 45.3602 18.9753 45.3602 18.854V17.853C45.3602 17.7317 45.3949 17.6363 45.4642 17.567C45.5335 17.4977 45.6289 17.463 45.7502 17.463L54.6682 17.411C54.7895 17.411 54.8849 17.4457 54.9542 17.515C55.0235 17.5843 55.0582 17.6797 55.0582 17.801V18.659C55.0582 18.7803 55.0235 18.8757 54.9542 18.945C54.8849 19.0057 54.7895 19.0403 54.6682 19.049L51.3272 19.127L51.3142 20.089L53.3422 20.05C53.5675 20.05 53.7539 20.115 53.9012 20.245C54.0572 20.3663 54.1309 20.5613 54.1222 20.83C54.1135 21.1073 54.1049 21.3673 54.0962 21.61C54.0962 21.844 54.0875 22.078 54.0702 22.312C54.0615 22.546 54.0442 22.78 54.0182 23.014C54.0009 23.248 53.9792 23.495 53.9532 23.755C53.9359 23.8763 53.8969 23.9717 53.8362 24.041C53.7755 24.1103 53.6845 24.145 53.5632 24.145H52.2632C52.1419 24.145 52.0465 24.1103 51.9772 24.041C51.9079 23.9717 51.8732 23.8763 51.8732 23.755V21.857L46.6342 22ZM45.9192 15.903C45.8672 15.7903 45.8585 15.682 45.8932 15.578C45.9365 15.4653 46.0275 15.3873 46.1662 15.344C46.5735 15.2227 46.9549 15.0753 47.3102 14.902C47.6742 14.72 47.9992 14.5163 48.2852 14.291C48.5712 14.057 48.8095 13.797 49.0002 13.511C49.1909 13.225 49.3252 12.913 49.4032 12.575C49.4465 12.3757 49.5072 12.2283 49.5852 12.133C49.6632 12.0377 49.7759 11.99 49.9232 11.99H51.3272C51.5005 11.99 51.6349 12.0463 51.7302 12.159C51.8255 12.263 51.8559 12.4017 51.8212 12.575C51.7172 13.069 51.5482 13.5327 51.3142 13.966C51.7822 14.2173 52.2545 14.4123 52.7312 14.551C53.2165 14.6897 53.7192 14.7893 54.2392 14.85C54.3605 14.8673 54.4385 14.9323 54.4732 15.045C54.5165 15.149 54.5209 15.2487 54.4862 15.344L54.1742 16.501C54.0962 16.7003 53.9142 16.7783 53.6282 16.735C52.9695 16.6657 52.3455 16.527 51.7562 16.319C51.1669 16.111 50.6122 15.8207 50.0922 15.448C49.6589 15.812 49.1735 16.1197 48.6362 16.371C48.0989 16.6223 47.5182 16.8217 46.8942 16.969C46.7642 17.0037 46.6429 17.0037 46.5302 16.969C46.4175 16.9257 46.3352 16.852 46.2832 16.748L45.9192 15.903ZM12.042 36.23C11.7473 36.23 11.5436 36.1737 11.431 36.061C11.327 35.9483 11.2706 35.7447 11.262 35.45L11.171 30.939C11.1536 30.679 11.2793 30.549 11.548 30.549H13.043C13.173 30.549 13.264 30.5837 13.316 30.653C13.3766 30.7137 13.4113 30.809 13.42 30.939V31.654L17.086 31.641V30.913C17.0946 30.653 17.2203 30.523 17.463 30.523H18.919C19.179 30.523 19.3046 30.653 19.296 30.913L19.205 35.398C19.205 35.6927 19.1486 35.8963 19.036 36.009C18.932 36.113 18.7326 36.1693 18.438 36.178L12.042 36.23ZM13.446 34.423L17.112 34.41L17.099 33.383L13.433 33.409L13.446 34.423ZM10.781 38.739C10.6596 38.7477 10.5643 38.7173 10.495 38.648C10.4256 38.57 10.391 38.4703 10.391 38.349V37.283C10.391 37.1617 10.4256 37.0663 10.495 36.997C10.5643 36.9277 10.6596 36.893 10.781 36.893L19.699 36.867C19.8203 36.867 19.9156 36.9017 19.985 36.971C20.0543 37.0403 20.089 37.1357 20.089 37.257V38.18C20.089 38.3013 20.0543 38.3967 19.985 38.466C19.9156 38.5267 19.8203 38.5613 19.699 38.57L16.436 38.635L16.397 41.04C16.3796 41.3 16.2496 41.43 16.007 41.43H14.473C14.213 41.43 14.083 41.3 14.083 41.04L14.044 38.674L10.781 38.739ZM24.7906 41.95C24.5133 41.7073 24.2966 41.4213 24.1406 41.092C23.9933 40.7627 23.9196 40.4073 23.9196 40.026C23.9196 39.6447 23.9933 39.285 24.1406 38.947C24.2966 38.609 24.5133 38.3143 24.7906 38.063C25.0679 37.8117 25.3973 37.6123 25.7786 37.465C26.1686 37.3177 26.5976 37.244 27.0656 37.244C27.5249 37.244 27.9453 37.3177 28.3266 37.465C28.7166 37.6123 29.0459 37.8117 29.3146 38.063C29.5919 38.3143 29.8043 38.609 29.9516 38.947C30.1076 39.285 30.1856 39.6447 30.1856 40.026C30.1856 40.4073 30.1076 40.7627 29.9516 41.092C29.8043 41.4213 29.5919 41.7073 29.3146 41.95C29.0459 42.1927 28.7166 42.3833 28.3266 42.522C27.9453 42.6607 27.5249 42.73 27.0656 42.73C26.5976 42.73 26.1686 42.6607 25.7786 42.522C25.3973 42.3833 25.0679 42.1927 24.7906 41.95ZM25.8696 40.026C25.8696 40.3293 25.9866 40.585 26.2206 40.793C26.4546 41.001 26.7623 41.105 27.1436 41.105C27.5163 41.105 27.8196 41.001 28.0536 40.793C28.2876 40.585 28.4046 40.3293 28.4046 40.026C28.4046 39.7227 28.2876 39.467 28.0536 39.259C27.8196 39.0423 27.5163 38.934 27.1436 38.934C26.7449 38.934 26.4329 39.0423 26.2076 39.259C25.9823 39.467 25.8696 39.7227 25.8696 40.026ZM28.8206 37.049C28.5606 37.049 28.4306 36.919 28.4306 36.659L28.3526 30.77C28.3526 30.51 28.4783 30.38 28.7296 30.38H30.3156C30.5756 30.38 30.7013 30.51 30.6926 30.77L30.6406 32.811H31.7066C31.8453 32.811 31.9536 32.8543 32.0316 32.941C32.1183 33.019 32.1616 33.1273 32.1616 33.266V34.332C32.1616 34.4707 32.1183 34.5833 32.0316 34.67C31.9536 34.748 31.8453 34.787 31.7066 34.787H30.6016L30.5626 36.659C30.5453 36.919 30.4153 37.049 30.1726 37.049H28.8206ZM21.0726 36.1C21.0033 35.9787 20.9903 35.866 21.0336 35.762C21.0856 35.6493 21.1853 35.554 21.3326 35.476C22.0606 35.0947 22.6846 34.67 23.2046 34.202C23.7333 33.7253 24.1319 33.1793 24.4006 32.564H21.6836C21.5276 32.564 21.4019 32.5163 21.3066 32.421C21.2113 32.3257 21.1636 32.2 21.1636 32.044V31.16C21.1636 31.004 21.2113 30.8783 21.3066 30.783C21.4019 30.6877 21.5276 30.64 21.6836 30.64H26.4806C26.7493 30.64 26.9486 30.718 27.0786 30.874C27.2173 31.0213 27.2563 31.2293 27.1956 31.498C27.1003 31.9313 26.9573 32.3517 26.7666 32.759C26.5759 33.1663 26.3419 33.565 26.0646 33.955C26.3246 34.163 26.5976 34.3493 26.8836 34.514C27.1696 34.6787 27.4773 34.839 27.8066 34.995C27.9453 35.0643 28.0233 35.151 28.0406 35.255C28.0666 35.3503 28.0363 35.4587 27.9496 35.58L27.3256 36.477C27.2389 36.5983 27.1436 36.6633 27.0396 36.672C26.9443 36.672 26.8446 36.6417 26.7406 36.581C26.0646 36.2083 25.4666 35.7447 24.9466 35.19C24.5479 35.554 24.1146 35.8833 23.6466 36.178C23.1786 36.464 22.6803 36.7067 22.1516 36.906C21.9783 36.9753 21.8353 36.9883 21.7226 36.945C21.6099 36.893 21.5189 36.8107 21.4496 36.698L21.0726 36.1ZM39.242 41.976C38.9474 41.9847 38.722 41.911 38.566 41.755C38.4187 41.599 38.3407 41.3737 38.332 41.079L38.254 38.245C38.2367 37.985 38.3624 37.855 38.631 37.855H40.061C40.3124 37.855 40.438 37.985 40.438 38.245L40.412 40.104L45.378 40.156C45.6294 40.156 45.755 40.2687 45.755 40.494V41.482C45.755 41.7507 45.638 41.885 45.404 41.885L39.242 41.976ZM44.026 38.349C43.766 38.349 43.636 38.219 43.636 37.959L43.597 34.436H41.647C41.5084 34.436 41.3957 34.397 41.309 34.319C41.231 34.2323 41.192 34.1197 41.192 33.981V32.902C41.192 32.7633 41.231 32.655 41.309 32.577C41.3957 32.4903 41.5084 32.447 41.647 32.447H43.571L43.558 30.77C43.558 30.51 43.6837 30.38 43.935 30.38H45.521C45.781 30.38 45.9067 30.51 45.898 30.77L45.768 37.959C45.7507 38.219 45.6207 38.349 45.378 38.349H44.026ZM35.511 36.737C35.4417 36.659 35.4114 36.568 35.42 36.464C35.4374 36.36 35.498 36.2647 35.602 36.178C36.0094 35.866 36.3647 35.5107 36.668 35.112C36.9714 34.7133 37.227 34.2973 37.435 33.864C37.643 33.422 37.799 32.9713 37.903 32.512C38.0157 32.0527 38.0807 31.602 38.098 31.16C38.1067 30.9607 38.1587 30.8133 38.254 30.718C38.3494 30.6227 38.4707 30.575 38.618 30.575H40.009C40.1824 30.575 40.3124 30.6313 40.399 30.744C40.4857 30.848 40.5247 30.9867 40.516 31.16C40.464 32.0787 40.256 32.967 39.892 33.825C40.2907 34.1803 40.711 34.4837 41.153 34.735C41.6037 34.9777 42.05 35.1857 42.492 35.359C42.622 35.411 42.6957 35.4933 42.713 35.606C42.7304 35.71 42.7174 35.801 42.674 35.879L42.063 37.049C41.9417 37.257 41.751 37.3047 41.491 37.192C41.023 37.01 40.5767 36.7803 40.152 36.503C39.736 36.2257 39.3374 35.879 38.956 35.463C38.67 35.853 38.3494 36.217 37.994 36.555C37.6387 36.893 37.2444 37.2007 36.811 37.478C36.6897 37.556 36.5727 37.5863 36.46 37.569C36.3474 37.5517 36.252 37.4997 36.174 37.413L35.511 36.737ZM51.5125 41.781C51.2265 41.5297 51.0055 41.2307 50.8495 40.884C50.6935 40.546 50.6155 40.182 50.6155 39.792C50.6155 39.402 50.6935 39.0337 50.8495 38.687C51.0055 38.3317 51.2265 38.024 51.5125 37.764C51.7985 37.504 52.1365 37.296 52.5265 37.14C52.9252 36.984 53.3628 36.906 53.8395 36.906C54.3075 36.906 54.7365 36.984 55.1265 37.14C55.5252 37.296 55.8675 37.504 56.1535 37.764C56.4395 38.024 56.6605 38.3317 56.8165 38.687C56.9725 39.0337 57.0505 39.402 57.0505 39.792C57.0505 40.182 56.9725 40.546 56.8165 40.884C56.6605 41.2307 56.4395 41.5297 56.1535 41.781C55.8675 42.0323 55.5252 42.2317 55.1265 42.379C54.7365 42.5263 54.3075 42.6 53.8395 42.6C53.3628 42.6 52.9252 42.5263 52.5265 42.379C52.1365 42.2317 51.7985 42.0323 51.5125 41.781ZM52.5655 39.792C52.5655 40.13 52.6912 40.4117 52.9425 40.637C53.1938 40.8623 53.5188 40.975 53.9175 40.975C54.3075 40.975 54.6282 40.8623 54.8795 40.637C55.1395 40.4117 55.2695 40.13 55.2695 39.792C55.2695 39.454 55.1395 39.1723 54.8795 38.947C54.6282 38.713 54.3075 38.596 53.9175 38.596C53.5015 38.596 53.1722 38.713 52.9295 38.947C52.6868 39.1723 52.5655 39.454 52.5655 39.792ZM53.5275 36.659C53.2675 36.659 53.1375 36.529 53.1375 36.269L53.0075 30.9C53.0075 30.64 53.1332 30.51 53.3845 30.51H54.7755C55.0355 30.51 55.1612 30.64 55.1525 30.9L55.1005 32.759H55.8675V30.77C55.8675 30.51 55.9932 30.38 56.2445 30.38H57.6355C57.8955 30.38 58.0212 30.51 58.0125 30.77L57.7265 36.919C57.7265 37.179 57.5965 37.309 57.3365 37.309H56.2575C55.9975 37.309 55.8675 37.179 55.8675 36.919V34.579H55.0485L54.9965 36.269C54.9965 36.529 54.8665 36.659 54.6065 36.659H53.5275ZM46.8845 36.087C46.7285 35.9137 46.7588 35.7273 46.9755 35.528C47.5995 34.93 48.0675 34.2757 48.3795 33.565C48.6915 32.8543 48.8605 32.0527 48.8865 31.16C48.8952 30.9607 48.9472 30.8133 49.0425 30.718C49.1378 30.6227 49.2592 30.575 49.4065 30.575H50.7195C50.8928 30.575 51.0228 30.6313 51.1095 30.744C51.2048 30.848 51.2438 30.9867 51.2265 31.16C51.2005 31.5327 51.1485 31.914 51.0705 32.304C51.0012 32.6853 50.8972 33.071 50.7585 33.461C51.0705 33.7643 51.3825 34.0287 51.6945 34.254C52.0152 34.4707 52.3272 34.6657 52.6305 34.839C52.8645 34.969 52.9252 35.1423 52.8125 35.359L51.9415 36.399C51.7942 36.555 51.6035 36.5593 51.3695 36.412C50.8322 36.0827 50.3295 35.671 49.8615 35.177C49.4195 35.8183 48.8605 36.3687 48.1845 36.828C48.0545 36.9147 47.9332 36.9493 47.8205 36.932C47.7165 36.906 47.6255 36.8497 47.5475 36.763L46.8845 36.087ZM61.9015 42.158C61.7022 42.158 61.5462 42.0973 61.4335 41.976C61.3209 41.8633 61.2602 41.7073 61.2515 41.508L61.1865 38.05C61.1779 37.8507 61.2342 37.6947 61.3555 37.582C61.4769 37.4693 61.6372 37.4087 61.8365 37.4L68.2325 37.257C68.4319 37.2483 68.5922 37.3047 68.7135 37.426C68.8349 37.5473 68.8912 37.7077 68.8825 37.907L68.8045 41.43C68.7959 41.6293 68.7352 41.7853 68.6225 41.898C68.5099 42.0193 68.3539 42.08 68.1545 42.08L61.9015 42.158ZM63.4225 40.403L66.7115 40.364V39.012L63.4225 39.064V40.403ZM67.2965 36.659C67.0365 36.659 66.9065 36.529 66.9065 36.269L66.8285 30.77C66.8285 30.51 66.9542 30.38 67.2055 30.38H68.7915C69.0515 30.38 69.1772 30.51 69.1685 30.77L69.0385 36.269C69.0212 36.529 68.8912 36.659 68.6485 36.659H67.2965ZM59.7435 35.502L59.6135 30.965C59.5962 30.705 59.7219 30.575 59.9905 30.575H61.4205C61.5505 30.575 61.6415 30.6097 61.6935 30.679C61.7542 30.7397 61.7889 30.835 61.7975 30.965L61.8365 34.631C62.4259 34.6397 63.0455 34.618 63.6955 34.566C64.3455 34.5053 64.9349 34.4187 65.4635 34.306C65.7149 34.2627 65.8579 34.3493 65.8925 34.566L66.0875 35.515C66.1135 35.6537 66.1005 35.7577 66.0485 35.827C66.0052 35.8877 65.9272 35.9353 65.8145 35.97C65.4505 36.074 65.0562 36.165 64.6315 36.243C64.2155 36.321 63.7822 36.386 63.3315 36.438C62.8809 36.4813 62.4259 36.516 61.9665 36.542C61.5159 36.5593 61.0782 36.5637 60.6535 36.555C60.0555 36.5377 59.7522 36.2387 59.7435 35.658V35.502Z" fill="white"/>
</svg>
