<svg width="80" height="98" viewBox="0 0 80 98" fill="none" xmlns="http://www.w3.org/2000/svg">
<rect width="80" height="97.5824" rx="20" fill="#F17B9B"/>
<path d="M40.9583 58.6667C42.1187 58.6667 43.2315 59.1276 44.0519 59.9481C44.8724 60.7685 45.3333 61.8813 45.3333 63.0417C45.3333 63.4284 45.487 63.7994 45.7605 64.0729C46.034 64.3464 46.4049 64.5 46.7917 64.5C47.1784 64.5 47.5494 64.3464 47.8229 64.0729C48.0964 63.7994 48.25 63.4284 48.25 63.0417C48.25 61.1078 47.4818 59.2531 46.1143 57.8857C44.7469 56.5182 42.8922 55.75 40.9583 55.75C40.5716 55.75 40.2006 55.9036 39.9271 56.1771C39.6536 56.4506 39.5 56.8216 39.5 57.2083C39.5 57.5951 39.6536 57.966 39.9271 58.2395C40.2006 58.513 40.5716 58.6667 40.9583 58.6667V58.6667Z" fill="white"/>
<path d="M40.9583 52.8332C43.6658 52.8332 46.2623 53.9087 48.1767 55.8231C50.0911 57.7376 51.1667 60.3341 51.1667 63.0415C51.1667 63.4283 51.3203 63.7992 51.5938 64.0727C51.8673 64.3462 52.2382 64.4998 52.625 64.4998C53.0118 64.4998 53.3827 64.3462 53.6562 64.0727C53.9297 63.7992 54.0833 63.4283 54.0833 63.0415C54.0833 59.5605 52.7005 56.2221 50.2391 53.7607C47.7777 51.2993 44.4393 49.9165 40.9583 49.9165C40.5716 49.9165 40.2006 50.0701 39.9271 50.3436C39.6536 50.6171 39.5 50.9881 39.5 51.3748C39.5 51.7616 39.6536 52.1325 39.9271 52.406C40.2006 52.6795 40.5716 52.8332 40.9583 52.8332V52.8332ZM53.7188 70.2019C53.6385 69.9678 53.5001 69.758 53.3164 69.5921C53.1327 69.4263 52.9098 69.3099 52.6688 69.254L43.9187 67.2561C43.6812 67.2022 43.434 67.2087 43.1997 67.275C42.9653 67.3412 42.7513 67.4651 42.5771 67.6353C42.3729 67.8248 42.3583 67.8394 41.4104 69.6478C38.2651 68.1984 35.7448 65.6678 34.3083 62.5165C36.1604 61.5832 36.175 61.5832 36.3646 61.3644C36.5348 61.1902 36.6587 60.9762 36.7249 60.7418C36.7911 60.5075 36.7976 60.2603 36.7437 60.0228L34.7458 51.3748C34.6899 51.1338 34.5735 50.9109 34.4077 50.7272C34.2419 50.5435 34.032 50.405 33.7979 50.3248C33.4573 50.2032 33.1057 50.1153 32.7479 50.0623C32.3793 49.9769 32.0032 49.928 31.625 49.9165C29.8458 49.9165 28.1395 50.6233 26.8815 51.8813C25.6234 53.1394 24.9167 54.8457 24.9167 56.6248C24.9244 62.5788 27.293 68.2867 31.5031 72.4968C35.7132 76.7068 41.421 79.0755 47.375 79.0832C48.256 79.0832 49.1283 78.9097 49.9422 78.5725C50.7561 78.2354 51.4956 77.7413 52.1185 77.1183C52.7414 76.4954 53.2356 75.7559 53.5727 74.942C53.9098 74.1281 54.0833 73.2558 54.0833 72.3748C54.0838 72.0037 54.0545 71.633 53.9958 71.2665C53.9345 70.9043 53.8418 70.5481 53.7188 70.2019V70.2019Z" fill="white"/>
<path d="M25.7199 24.158C25.5206 24.158 25.3646 24.0973 25.2519 23.976C25.1392 23.8633 25.0786 23.7073 25.0699 23.508L25.0049 20.05C24.9962 19.8507 25.0526 19.6947 25.1739 19.582C25.2952 19.4693 25.4556 19.4087 25.6549 19.4L32.0509 19.257C32.2502 19.2483 32.4106 19.3047 32.5319 19.426C32.6532 19.5473 32.7096 19.7077 32.7009 19.907L32.6229 23.43C32.6142 23.6293 32.5536 23.7853 32.4409 23.898C32.3282 24.0193 32.1722 24.08 31.9729 24.08L25.7199 24.158ZM27.2409 22.403L30.5299 22.364V21.012L27.2409 21.064V22.403ZM31.1149 18.659C30.8549 18.659 30.7249 18.529 30.7249 18.269L30.6469 12.77C30.6469 12.51 30.7726 12.38 31.0239 12.38H32.6099C32.8699 12.38 32.9956 12.51 32.9869 12.77L32.8569 18.269C32.8396 18.529 32.7096 18.659 32.4669 18.659H31.1149ZM25.6549 18.269C25.5336 18.217 25.4642 18.1347 25.4469 18.022C25.4382 17.9007 25.4686 17.7707 25.5379 17.632C25.7632 17.1987 25.9496 16.7263 26.0969 16.215C26.2442 15.7037 26.3396 15.1967 26.3829 14.694H23.1979C22.9812 14.694 22.8729 14.5857 22.8729 14.369V13.134C22.8729 12.9173 22.9812 12.809 23.1979 12.809H28.0599C28.2852 12.809 28.4716 12.874 28.6189 13.004C28.7662 13.1253 28.8399 13.3203 28.8399 13.589V13.719C28.8399 14.551 28.6926 15.3787 28.3979 16.202C28.1032 17.0167 27.7262 17.7663 27.2669 18.451C27.2062 18.5377 27.1239 18.6113 27.0199 18.672C26.9159 18.7327 26.8032 18.737 26.6819 18.685L25.6549 18.269ZM36.2874 16.475C35.9667 16.215 35.724 15.916 35.5594 15.578C35.3947 15.2313 35.3124 14.8673 35.3124 14.486C35.3124 14.096 35.3947 13.732 35.5594 13.394C35.724 13.0473 35.9667 12.7483 36.2874 12.497C36.608 12.237 36.998 12.0333 37.4574 11.886C37.9254 11.7387 38.4584 11.665 39.0564 11.665C39.6544 11.665 40.183 11.7387 40.6424 11.886C41.1104 12.0333 41.5047 12.237 41.8254 12.497C42.1461 12.7483 42.3887 13.0473 42.5534 13.394C42.7181 13.732 42.8004 14.096 42.8004 14.486C42.8004 14.8673 42.7181 15.2313 42.5534 15.578C42.3887 15.916 42.1461 16.215 41.8254 16.475C41.5047 16.7263 41.1104 16.93 40.6424 17.086C40.183 17.2333 39.6544 17.307 39.0564 17.307C38.4584 17.307 37.9254 17.2333 37.4574 17.086C36.998 16.93 36.608 16.7263 36.2874 16.475ZM37.6134 14.707C37.6134 15.0363 37.752 15.3137 38.0294 15.539C38.3067 15.7557 38.6707 15.864 39.1214 15.864C39.5634 15.864 39.923 15.7557 40.2004 15.539C40.4864 15.3137 40.6294 15.0363 40.6294 14.707C40.6294 14.3777 40.4907 14.1047 40.2134 13.888C39.936 13.6627 39.572 13.55 39.1214 13.55C38.6794 13.55 38.3154 13.6627 38.0294 13.888C37.752 14.1047 37.6134 14.3777 37.6134 14.707ZM34.5974 19.569C34.476 19.5777 34.3807 19.5473 34.3114 19.478C34.242 19.4 34.2074 19.3003 34.2074 19.179V18.243C34.2074 18.1217 34.242 18.0263 34.3114 17.957C34.3807 17.8877 34.476 17.853 34.5974 17.853L43.5154 17.801C43.6367 17.801 43.732 17.8357 43.8014 17.905C43.8707 17.9743 43.9054 18.0697 43.9054 18.191V18.984C43.9054 19.1053 43.8707 19.2007 43.8014 19.27C43.732 19.3307 43.6367 19.3653 43.5154 19.374L34.5974 19.569ZM36.2484 23.846C35.9537 23.8547 35.7284 23.781 35.5724 23.625C35.425 23.469 35.347 23.2437 35.3384 22.949L35.2734 20.57C35.256 20.31 35.3817 20.18 35.6504 20.18L37.1584 20.154C37.4097 20.154 37.5354 20.284 37.5354 20.544L37.5484 21.974L42.6444 22.026C42.8957 22.026 43.0214 22.1387 43.0214 22.364V23.352C43.0214 23.6207 42.9044 23.755 42.6704 23.755L36.2484 23.846ZM45.084 17.112C45.0233 17.008 45.0103 16.8997 45.045 16.787C45.0797 16.6743 45.1577 16.592 45.279 16.54C46.1457 16.1587 46.8953 15.6733 47.528 15.084C48.1607 14.4947 48.6027 13.7883 48.854 12.965C48.9147 12.7657 48.9797 12.6183 49.049 12.523C49.1183 12.4277 49.2267 12.38 49.374 12.38H50.752C50.9253 12.38 51.064 12.4363 51.168 12.549C51.272 12.653 51.3067 12.7917 51.272 12.965C51.1333 13.6237 50.8863 14.239 50.531 14.811C51.0077 15.1317 51.5277 15.4003 52.091 15.617C52.6543 15.8337 53.2133 16.02 53.768 16.176C53.8893 16.2107 53.963 16.2843 53.989 16.397C54.0237 16.501 54.0193 16.5963 53.976 16.683L53.508 17.801C53.4213 17.9917 53.235 18.0523 52.949 17.983C52.299 17.8183 51.6663 17.5843 51.051 17.281C50.4443 16.9777 49.8853 16.618 49.374 16.202C48.932 16.618 48.4337 16.9863 47.879 17.307C47.333 17.619 46.7437 17.879 46.111 18.087C45.9897 18.1303 45.8683 18.139 45.747 18.113C45.6343 18.087 45.5477 18.022 45.487 17.918L45.084 17.112ZM45.071 20.609C44.9497 20.6177 44.8543 20.5873 44.785 20.518C44.7157 20.44 44.681 20.3403 44.681 20.219V19.153C44.681 19.0317 44.7157 18.9363 44.785 18.867C44.8543 18.7977 44.9497 18.763 45.071 18.763L53.989 18.737C54.1103 18.737 54.2057 18.7717 54.275 18.841C54.3443 18.9103 54.379 19.0057 54.379 19.127V20.05C54.379 20.1713 54.3443 20.2667 54.275 20.336C54.2057 20.3967 54.1103 20.4313 53.989 20.44L50.726 20.505L50.687 22.975C50.6697 23.235 50.5397 23.365 50.297 23.365H48.763C48.503 23.365 48.373 23.235 48.373 22.975L48.334 20.544L45.071 20.609ZM26.5975 41.976C26.3028 41.9847 26.0775 41.911 25.9215 41.755C25.7742 41.599 25.6962 41.3737 25.6875 41.079L25.6095 38.245C25.5922 37.985 25.7178 37.855 25.9865 37.855H27.4165C27.6678 37.855 27.7935 37.985 27.7935 38.245L27.7675 40.104L32.7335 40.156C32.9848 40.156 33.1105 40.2687 33.1105 40.494V41.482C33.1105 41.7507 32.9935 41.885 32.7595 41.885L26.5975 41.976ZM31.3815 38.349C31.1215 38.349 30.9915 38.219 30.9915 37.959L30.9525 34.436H29.0025C28.8638 34.436 28.7512 34.397 28.6645 34.319C28.5865 34.2323 28.5475 34.1197 28.5475 33.981V32.902C28.5475 32.7633 28.5865 32.655 28.6645 32.577C28.7512 32.4903 28.8638 32.447 29.0025 32.447H30.9265L30.9135 30.77C30.9135 30.51 31.0392 30.38 31.2905 30.38H32.8765C33.1365 30.38 33.2622 30.51 33.2535 30.77L33.1235 37.959C33.1062 38.219 32.9762 38.349 32.7335 38.349H31.3815ZM22.8665 36.737C22.7972 36.659 22.7668 36.568 22.7755 36.464C22.7928 36.36 22.8535 36.2647 22.9575 36.178C23.3648 35.866 23.7202 35.5107 24.0235 35.112C24.3268 34.7133 24.5825 34.2973 24.7905 33.864C24.9985 33.422 25.1545 32.9713 25.2585 32.512C25.3712 32.0527 25.4362 31.602 25.4535 31.16C25.4622 30.9607 25.5142 30.8133 25.6095 30.718C25.7048 30.6227 25.8262 30.575 25.9735 30.575H27.3645C27.5378 30.575 27.6678 30.6313 27.7545 30.744C27.8412 30.848 27.8802 30.9867 27.8715 31.16C27.8195 32.0787 27.6115 32.967 27.2475 33.825C27.6462 34.1803 28.0665 34.4837 28.5085 34.735C28.9592 34.9777 29.4055 35.1857 29.8475 35.359C29.9775 35.411 30.0512 35.4933 30.0685 35.606C30.0858 35.71 30.0728 35.801 30.0295 35.879L29.4185 37.049C29.2972 37.257 29.1065 37.3047 28.8465 37.192C28.3785 37.01 27.9322 36.7803 27.5075 36.503C27.0915 36.2257 26.6928 35.879 26.3115 35.463C26.0255 35.853 25.7048 36.217 25.3495 36.555C24.9942 36.893 24.5998 37.2007 24.1665 37.478C24.0452 37.556 23.9282 37.5863 23.8155 37.569C23.7028 37.5517 23.6075 37.4997 23.5295 37.413L22.8665 36.737ZM38.868 41.781C38.582 41.5297 38.361 41.2307 38.205 40.884C38.049 40.546 37.971 40.182 37.971 39.792C37.971 39.402 38.049 39.0337 38.205 38.687C38.361 38.3317 38.582 38.024 38.868 37.764C39.154 37.504 39.492 37.296 39.882 37.14C40.2807 36.984 40.7183 36.906 41.195 36.906C41.663 36.906 42.092 36.984 42.482 37.14C42.8807 37.296 43.223 37.504 43.509 37.764C43.795 38.024 44.016 38.3317 44.172 38.687C44.328 39.0337 44.406 39.402 44.406 39.792C44.406 40.182 44.328 40.546 44.172 40.884C44.016 41.2307 43.795 41.5297 43.509 41.781C43.223 42.0323 42.8807 42.2317 42.482 42.379C42.092 42.5263 41.663 42.6 41.195 42.6C40.7183 42.6 40.2807 42.5263 39.882 42.379C39.492 42.2317 39.154 42.0323 38.868 41.781ZM39.921 39.792C39.921 40.13 40.0467 40.4117 40.298 40.637C40.5493 40.8623 40.8743 40.975 41.273 40.975C41.663 40.975 41.9837 40.8623 42.235 40.637C42.495 40.4117 42.625 40.13 42.625 39.792C42.625 39.454 42.495 39.1723 42.235 38.947C41.9837 38.713 41.663 38.596 41.273 38.596C40.857 38.596 40.5277 38.713 40.285 38.947C40.0423 39.1723 39.921 39.454 39.921 39.792ZM40.883 36.659C40.623 36.659 40.493 36.529 40.493 36.269L40.363 30.9C40.363 30.64 40.4887 30.51 40.74 30.51H42.131C42.391 30.51 42.5167 30.64 42.508 30.9L42.456 32.759H43.223V30.77C43.223 30.51 43.3487 30.38 43.6 30.38H44.991C45.251 30.38 45.3767 30.51 45.368 30.77L45.082 36.919C45.082 37.179 44.952 37.309 44.692 37.309H43.613C43.353 37.309 43.223 37.179 43.223 36.919V34.579H42.404L42.352 36.269C42.352 36.529 42.222 36.659 41.962 36.659H40.883ZM34.24 36.087C34.084 35.9137 34.1143 35.7273 34.331 35.528C34.955 34.93 35.423 34.2757 35.735 33.565C36.047 32.8543 36.216 32.0527 36.242 31.16C36.2507 30.9607 36.3027 30.8133 36.398 30.718C36.4933 30.6227 36.6147 30.575 36.762 30.575H38.075C38.2483 30.575 38.3783 30.6313 38.465 30.744C38.5603 30.848 38.5993 30.9867 38.582 31.16C38.556 31.5327 38.504 31.914 38.426 32.304C38.3567 32.6853 38.2527 33.071 38.114 33.461C38.426 33.7643 38.738 34.0287 39.05 34.254C39.3707 34.4707 39.6827 34.6657 39.986 34.839C40.22 34.969 40.2807 35.1423 40.168 35.359L39.297 36.399C39.1497 36.555 38.959 36.5593 38.725 36.412C38.1877 36.0827 37.685 35.671 37.217 35.177C36.775 35.8183 36.216 36.3687 35.54 36.828C35.41 36.9147 35.2887 36.9493 35.176 36.932C35.072 36.906 34.981 36.8497 34.903 36.763L34.24 36.087ZM49.257 42.158C49.0577 42.158 48.9017 42.0973 48.789 41.976C48.6763 41.8633 48.6157 41.7073 48.607 41.508L48.542 38.05C48.5333 37.8507 48.5897 37.6947 48.711 37.582C48.8323 37.4693 48.9927 37.4087 49.192 37.4L55.588 37.257C55.7873 37.2483 55.9477 37.3047 56.069 37.426C56.1903 37.5473 56.2467 37.7077 56.238 37.907L56.16 41.43C56.1513 41.6293 56.0907 41.7853 55.978 41.898C55.8653 42.0193 55.7093 42.08 55.51 42.08L49.257 42.158ZM50.778 40.403L54.067 40.364V39.012L50.778 39.064V40.403ZM54.652 36.659C54.392 36.659 54.262 36.529 54.262 36.269L54.184 30.77C54.184 30.51 54.3097 30.38 54.561 30.38H56.147C56.407 30.38 56.5327 30.51 56.524 30.77L56.394 36.269C56.3767 36.529 56.2467 36.659 56.004 36.659H54.652ZM47.099 35.502L46.969 30.965C46.9517 30.705 47.0773 30.575 47.346 30.575H48.776C48.906 30.575 48.997 30.6097 49.049 30.679C49.1097 30.7397 49.1443 30.835 49.153 30.965L49.192 34.631C49.7813 34.6397 50.401 34.618 51.051 34.566C51.701 34.5053 52.2903 34.4187 52.819 34.306C53.0703 34.2627 53.2133 34.3493 53.248 34.566L53.443 35.515C53.469 35.6537 53.456 35.7577 53.404 35.827C53.3607 35.8877 53.2827 35.9353 53.17 35.97C52.806 36.074 52.4117 36.165 51.987 36.243C51.571 36.321 51.1377 36.386 50.687 36.438C50.2363 36.4813 49.7813 36.516 49.322 36.542C48.8713 36.5593 48.4337 36.5637 48.009 36.555C47.411 36.5377 47.1077 36.2387 47.099 35.658V35.502Z" fill="white"/>
</svg>
