<svg width="80" height="98" viewBox="0 0 80 98" fill="none" xmlns="http://www.w3.org/2000/svg">
<rect width="80" height="97.5824" rx="20" fill="#F17B9B"/>
<path d="M40.9583 58.6667C42.1187 58.6667 43.2315 59.1276 44.0519 59.9481C44.8724 60.7685 45.3333 61.8813 45.3333 63.0417C45.3333 63.4284 45.487 63.7994 45.7605 64.0729C46.034 64.3464 46.4049 64.5 46.7917 64.5C47.1784 64.5 47.5494 64.3464 47.8229 64.0729C48.0964 63.7994 48.25 63.4284 48.25 63.0417C48.25 61.1078 47.4818 59.2531 46.1143 57.8857C44.7469 56.5182 42.8922 55.75 40.9583 55.75C40.5716 55.75 40.2006 55.9036 39.9271 56.1771C39.6536 56.4506 39.5 56.8216 39.5 57.2083C39.5 57.5951 39.6536 57.966 39.9271 58.2395C40.2006 58.513 40.5716 58.6667 40.9583 58.6667V58.6667Z" fill="white"/>
<path d="M40.9583 52.8332C43.6658 52.8332 46.2623 53.9087 48.1767 55.8231C50.0912 57.7376 51.1667 60.3341 51.1667 63.0415C51.1667 63.4283 51.3203 63.7992 51.5938 64.0727C51.8673 64.3462 52.2382 64.4998 52.625 64.4998C53.0118 64.4998 53.3827 64.3462 53.6562 64.0727C53.9297 63.7992 54.0833 63.4283 54.0833 63.0415C54.0833 59.5605 52.7005 56.2221 50.2391 53.7607C47.7777 51.2993 44.4393 49.9165 40.9583 49.9165C40.5716 49.9165 40.2006 50.0701 39.9271 50.3436C39.6537 50.6171 39.5 50.9881 39.5 51.3748C39.5 51.7616 39.6537 52.1325 39.9271 52.406C40.2006 52.6795 40.5716 52.8332 40.9583 52.8332V52.8332ZM53.7188 70.2019C53.6385 69.9678 53.5001 69.758 53.3164 69.5921C53.1327 69.4263 52.9098 69.3099 52.6688 69.254L43.9188 67.2561C43.6812 67.2022 43.434 67.2087 43.1997 67.275C42.9653 67.3412 42.7513 67.4651 42.5771 67.6353C42.3729 67.8248 42.3583 67.8394 41.4104 69.6478C38.2651 68.1984 35.7448 65.6678 34.3083 62.5165C36.1604 61.5832 36.175 61.5832 36.3646 61.3644C36.5348 61.1902 36.6587 60.9762 36.7249 60.7418C36.7911 60.5075 36.7976 60.2603 36.7438 60.0228L34.7458 51.3748C34.6899 51.1338 34.5735 50.9109 34.4077 50.7272C34.2419 50.5435 34.032 50.405 33.7979 50.3248C33.4574 50.2032 33.1057 50.1153 32.7479 50.0623C32.3793 49.9769 32.0032 49.928 31.625 49.9165C29.8458 49.9165 28.1396 50.6233 26.8815 51.8813C25.6234 53.1394 24.9167 54.8457 24.9167 56.6248C24.9244 62.5788 27.293 68.2867 31.5031 72.4968C35.7132 76.7068 41.4211 79.0755 47.375 79.0832C48.256 79.0832 49.1283 78.9097 49.9422 78.5725C50.7561 78.2354 51.4956 77.7413 52.1185 77.1183C52.7414 76.4954 53.2356 75.7559 53.5727 74.942C53.9098 74.1281 54.0833 73.2558 54.0833 72.3748C54.0838 72.0037 54.0545 71.633 53.9958 71.2665C53.9346 70.9043 53.8418 70.5481 53.7188 70.2019V70.2019Z" fill="white"/>
<path d="M23.1589 19.569C23.0376 19.5777 22.9422 19.5473 22.8729 19.478C22.8036 19.4 22.7689 19.3003 22.7689 19.179V18.308C22.7689 18.1867 22.8036 18.0913 22.8729 18.022C22.9422 17.9527 23.0376 17.918 23.1589 17.918L26.4869 17.905L26.4739 17.424C26.3786 17.398 26.2832 17.372 26.1879 17.346C25.7719 17.2333 25.4209 17.073 25.1349 16.865C24.8489 16.657 24.6279 16.41 24.4719 16.124C24.3246 15.838 24.2509 15.5217 24.2509 15.175C24.2509 14.8283 24.3289 14.5033 24.4849 14.2L23.6789 14.213C23.5576 14.213 23.4622 14.1783 23.3929 14.109C23.3236 14.0397 23.2889 13.9443 23.2889 13.823V12.9C23.2889 12.7787 23.3236 12.6833 23.3929 12.614C23.4622 12.5447 23.5576 12.51 23.6789 12.51H26.5649L26.6169 11.769C26.6429 11.4743 26.8076 11.3487 27.1109 11.392L28.5669 11.587C28.8529 11.6217 28.9786 11.7863 28.9439 12.081L28.8789 12.51L31.6219 12.497C31.8386 12.497 31.9469 12.6053 31.9469 12.822V13.732C31.9469 13.9487 31.8386 14.057 31.6219 14.057L30.6729 14.083C30.8809 14.395 30.9849 14.759 30.9849 15.175C30.9849 15.5217 30.9112 15.838 30.7639 16.124C30.6166 16.41 30.3999 16.657 30.1139 16.865C29.8279 17.073 29.4769 17.2333 29.0609 17.346C28.9742 17.372 28.8832 17.3937 28.7879 17.411L28.7749 17.892L32.0769 17.866C32.1982 17.866 32.2936 17.9007 32.3629 17.97C32.4322 18.0393 32.4669 18.1347 32.4669 18.256V18.984C32.4669 19.1053 32.4322 19.2007 32.3629 19.27C32.2936 19.3307 32.1982 19.3653 32.0769 19.374L23.1589 19.569ZM25.2519 24.041C24.9659 23.8243 24.7449 23.5643 24.5889 23.261C24.4329 22.9663 24.3549 22.6413 24.3549 22.286C24.3549 21.9567 24.4286 21.6447 24.5759 21.35C24.7319 21.0467 24.9529 20.7867 25.2389 20.57C25.5249 20.3447 25.8716 20.167 26.2789 20.037C26.6862 19.907 27.1412 19.842 27.6439 19.842C28.1379 19.842 28.5886 19.907 28.9959 20.037C29.4032 20.1583 29.7499 20.3317 30.0359 20.557C30.3219 20.7737 30.5429 21.0337 30.6989 21.337C30.8549 21.6317 30.9329 21.948 30.9329 22.286C30.9329 22.6413 30.8549 22.9663 30.6989 23.261C30.5429 23.5643 30.3176 23.8243 30.0229 24.041C29.7369 24.2577 29.3902 24.4267 28.9829 24.548C28.5842 24.6693 28.1379 24.73 27.6439 24.73C27.1499 24.73 26.6992 24.6693 26.2919 24.548C25.8932 24.4267 25.5466 24.2577 25.2519 24.041ZM26.2919 15.162C26.2919 15.4653 26.4349 15.6993 26.7209 15.864C27.0069 16.0287 27.3709 16.111 27.8129 16.111C28.2462 16.111 28.6059 16.0287 28.8919 15.864C29.1866 15.6993 29.3339 15.4653 29.3339 15.162C29.3339 14.8587 29.1866 14.6247 28.8919 14.46C28.6059 14.2953 28.2462 14.213 27.8129 14.213C27.3709 14.213 27.0069 14.2867 26.7209 14.434C26.4349 14.5813 26.2919 14.824 26.2919 15.162ZM26.5909 22.273C26.5909 22.5677 26.7122 22.793 26.9549 22.949C27.1976 23.105 27.5052 23.183 27.8779 23.183C28.2419 23.183 28.5452 23.105 28.7879 22.949C29.0392 22.793 29.1649 22.5677 29.1649 22.273C29.1649 21.9957 29.0392 21.7747 28.7879 21.61C28.5452 21.4453 28.2419 21.363 27.8779 21.363C27.4879 21.363 27.1759 21.4453 26.9419 21.61C26.7079 21.7747 26.5909 21.9957 26.5909 22.273ZM33.6325 15.201C33.5112 15.201 33.4159 15.1663 33.3465 15.097C33.2772 15.0277 33.2425 14.9323 33.2425 14.811V13.758C33.2425 13.6367 33.2772 13.5413 33.3465 13.472C33.4159 13.4027 33.5112 13.368 33.6325 13.368H35.6085L35.7775 12.094C35.8122 11.834 35.9812 11.717 36.2845 11.743L37.7275 11.925C38.0309 11.9683 38.1479 12.1417 38.0785 12.445L37.8965 13.355H39.7555C39.9722 13.355 40.0805 13.4633 40.0805 13.68V14.473C40.1585 14.4123 40.2582 14.382 40.3795 14.382H41.1335L41.1205 12.77C41.1205 12.51 41.2462 12.38 41.4975 12.38H43.0835C43.3435 12.38 43.4692 12.51 43.4605 12.77L43.3305 20.089C43.3132 20.349 43.1832 20.479 42.9405 20.479H41.5885C41.3285 20.479 41.1985 20.349 41.1985 20.089L41.1855 18.646H40.3795C40.2409 18.646 40.1282 18.607 40.0415 18.529C39.9635 18.4423 39.9245 18.3297 39.9245 18.191V17.307C39.9245 17.1683 39.9635 17.06 40.0415 16.982C40.1282 16.8953 40.2409 16.852 40.3795 16.852H41.1595V16.176H40.3795C40.2409 16.176 40.1282 16.137 40.0415 16.059C39.9635 15.9723 39.9245 15.8597 39.9245 15.721V15.019C39.8725 15.0363 39.8162 15.045 39.7555 15.045L39.1055 15.071C39.4955 15.4783 39.6905 16.0113 39.6905 16.67C39.6905 17.0427 39.6212 17.3937 39.4825 17.723C39.3525 18.0437 39.1575 18.3297 38.8975 18.581C38.6462 18.8237 38.3385 19.0187 37.9745 19.166C37.6192 19.3047 37.2205 19.374 36.7785 19.374C36.3279 19.374 35.9205 19.3047 35.5565 19.166C35.2012 19.0187 34.8935 18.8237 34.6335 18.581C34.3822 18.3297 34.1872 18.0437 34.0485 17.723C33.9099 17.3937 33.8405 17.0427 33.8405 16.67C33.8405 16.384 33.8795 16.111 33.9575 15.851C34.0442 15.591 34.1612 15.37 34.3085 15.188L33.6325 15.201ZM36.8045 23.976C36.5099 23.9847 36.2845 23.911 36.1285 23.755C35.9812 23.599 35.9032 23.3737 35.8945 23.079L35.8165 20.505C35.7992 20.245 35.9249 20.115 36.1935 20.115H37.6235C37.8749 20.115 38.0005 20.245 38.0005 20.505L37.9745 22.104L42.9405 22.156C43.1919 22.156 43.3175 22.2687 43.3175 22.494V23.482C43.3175 23.7507 43.2005 23.885 42.9665 23.885L36.8045 23.976ZM35.9855 17.437C36.2022 17.6623 36.4882 17.775 36.8435 17.775C37.1815 17.775 37.4589 17.6623 37.6755 17.437C37.8922 17.203 38.0005 16.9083 38.0005 16.553C38.0005 16.1977 37.8922 15.9073 37.6755 15.682C37.4589 15.448 37.1815 15.331 36.8435 15.331C36.4882 15.331 36.2022 15.448 35.9855 15.682C35.7689 15.9073 35.6605 16.1977 35.6605 16.553C35.6605 16.9083 35.7689 17.203 35.9855 17.437ZM45.136 17.138C45.084 16.9993 45.084 16.8737 45.136 16.761C45.188 16.6397 45.279 16.5617 45.409 16.527C46.3017 16.2843 47.164 16.0157 47.996 15.721C48.828 15.4263 49.5517 15.084 50.167 14.694L45.916 14.759C45.7947 14.759 45.6993 14.7243 45.63 14.655C45.5607 14.5857 45.526 14.4903 45.526 14.369V13.095C45.526 12.9737 45.5607 12.8783 45.63 12.809C45.6993 12.7397 45.7947 12.705 45.916 12.705H52.832C53.1267 12.705 53.326 12.8133 53.43 13.03C53.534 13.2467 53.5383 13.485 53.443 13.745C53.3043 14.109 53.0963 14.4557 52.819 14.785C52.5503 15.1057 52.2297 15.4133 51.857 15.708C52.195 15.8293 52.5287 15.9377 52.858 16.033C53.1873 16.1283 53.4993 16.2107 53.794 16.28C53.9327 16.3147 54.0237 16.3797 54.067 16.475C54.1103 16.5703 54.1103 16.6657 54.067 16.761L53.599 17.879C53.5557 17.9743 53.4863 18.0437 53.391 18.087C53.2957 18.1217 53.183 18.1217 53.053 18.087C52.533 17.9657 52.013 17.7967 51.493 17.58C50.9817 17.3633 50.4833 17.1163 49.998 16.839C49.374 17.1423 48.7283 17.4067 48.061 17.632C47.4023 17.8573 46.761 18.0393 46.137 18.178C45.981 18.2127 45.8423 18.2257 45.721 18.217C45.5997 18.1997 45.513 18.1217 45.461 17.983L45.136 17.138ZM45.071 20.609C44.9497 20.6177 44.8543 20.5873 44.785 20.518C44.7157 20.44 44.681 20.3403 44.681 20.219V19.153C44.681 19.0317 44.7157 18.9363 44.785 18.867C44.8543 18.7977 44.9497 18.763 45.071 18.763L53.989 18.737C54.1103 18.737 54.2057 18.7717 54.275 18.841C54.3443 18.9103 54.379 19.0057 54.379 19.127V20.05C54.379 20.1713 54.3443 20.2667 54.275 20.336C54.2057 20.3967 54.1103 20.4313 53.989 20.44L50.726 20.505L50.687 23.04C50.6697 23.3 50.5397 23.43 50.297 23.43H48.763C48.503 23.43 48.373 23.3 48.373 23.04L48.321 20.544L45.071 20.609ZM26.5975 41.976C26.3028 41.9847 26.0775 41.911 25.9215 41.755C25.7742 41.599 25.6962 41.3737 25.6875 41.079L25.6095 38.245C25.5922 37.985 25.7178 37.855 25.9865 37.855H27.4165C27.6678 37.855 27.7935 37.985 27.7935 38.245L27.7675 40.104L32.7335 40.156C32.9848 40.156 33.1105 40.2687 33.1105 40.494V41.482C33.1105 41.7507 32.9935 41.885 32.7595 41.885L26.5975 41.976ZM31.3815 38.349C31.1215 38.349 30.9915 38.219 30.9915 37.959L30.9525 34.436H29.0025C28.8638 34.436 28.7512 34.397 28.6645 34.319C28.5865 34.2323 28.5475 34.1197 28.5475 33.981V32.902C28.5475 32.7633 28.5865 32.655 28.6645 32.577C28.7512 32.4903 28.8638 32.447 29.0025 32.447H30.9265L30.9135 30.77C30.9135 30.51 31.0392 30.38 31.2905 30.38H32.8765C33.1365 30.38 33.2622 30.51 33.2535 30.77L33.1235 37.959C33.1062 38.219 32.9762 38.349 32.7335 38.349H31.3815ZM22.8665 36.737C22.7972 36.659 22.7668 36.568 22.7755 36.464C22.7928 36.36 22.8535 36.2647 22.9575 36.178C23.3648 35.866 23.7202 35.5107 24.0235 35.112C24.3268 34.7133 24.5825 34.2973 24.7905 33.864C24.9985 33.422 25.1545 32.9713 25.2585 32.512C25.3712 32.0527 25.4362 31.602 25.4535 31.16C25.4622 30.9607 25.5142 30.8133 25.6095 30.718C25.7048 30.6227 25.8262 30.575 25.9735 30.575H27.3645C27.5378 30.575 27.6678 30.6313 27.7545 30.744C27.8412 30.848 27.8802 30.9867 27.8715 31.16C27.8195 32.0787 27.6115 32.967 27.2475 33.825C27.6462 34.1803 28.0665 34.4837 28.5085 34.735C28.9592 34.9777 29.4055 35.1857 29.8475 35.359C29.9775 35.411 30.0512 35.4933 30.0685 35.606C30.0858 35.71 30.0728 35.801 30.0295 35.879L29.4185 37.049C29.2972 37.257 29.1065 37.3047 28.8465 37.192C28.3785 37.01 27.9322 36.7803 27.5075 36.503C27.0915 36.2257 26.6928 35.879 26.3115 35.463C26.0255 35.853 25.7048 36.217 25.3495 36.555C24.9942 36.893 24.5998 37.2007 24.1665 37.478C24.0452 37.556 23.9282 37.5863 23.8155 37.569C23.7028 37.5517 23.6075 37.4997 23.5295 37.413L22.8665 36.737ZM38.868 41.781C38.582 41.5297 38.361 41.2307 38.205 40.884C38.049 40.546 37.971 40.182 37.971 39.792C37.971 39.402 38.049 39.0337 38.205 38.687C38.361 38.3317 38.582 38.024 38.868 37.764C39.154 37.504 39.492 37.296 39.882 37.14C40.2807 36.984 40.7183 36.906 41.195 36.906C41.663 36.906 42.092 36.984 42.482 37.14C42.8807 37.296 43.223 37.504 43.509 37.764C43.795 38.024 44.016 38.3317 44.172 38.687C44.328 39.0337 44.406 39.402 44.406 39.792C44.406 40.182 44.328 40.546 44.172 40.884C44.016 41.2307 43.795 41.5297 43.509 41.781C43.223 42.0323 42.8807 42.2317 42.482 42.379C42.092 42.5263 41.663 42.6 41.195 42.6C40.7183 42.6 40.2807 42.5263 39.882 42.379C39.492 42.2317 39.154 42.0323 38.868 41.781ZM39.921 39.792C39.921 40.13 40.0467 40.4117 40.298 40.637C40.5493 40.8623 40.8743 40.975 41.273 40.975C41.663 40.975 41.9837 40.8623 42.235 40.637C42.495 40.4117 42.625 40.13 42.625 39.792C42.625 39.454 42.495 39.1723 42.235 38.947C41.9837 38.713 41.663 38.596 41.273 38.596C40.857 38.596 40.5277 38.713 40.285 38.947C40.0423 39.1723 39.921 39.454 39.921 39.792ZM40.883 36.659C40.623 36.659 40.493 36.529 40.493 36.269L40.363 30.9C40.363 30.64 40.4887 30.51 40.74 30.51H42.131C42.391 30.51 42.5167 30.64 42.508 30.9L42.456 32.759H43.223V30.77C43.223 30.51 43.3487 30.38 43.6 30.38H44.991C45.251 30.38 45.3767 30.51 45.368 30.77L45.082 36.919C45.082 37.179 44.952 37.309 44.692 37.309H43.613C43.353 37.309 43.223 37.179 43.223 36.919V34.579H42.404L42.352 36.269C42.352 36.529 42.222 36.659 41.962 36.659H40.883ZM34.24 36.087C34.084 35.9137 34.1143 35.7273 34.331 35.528C34.955 34.93 35.423 34.2757 35.735 33.565C36.047 32.8543 36.216 32.0527 36.242 31.16C36.2507 30.9607 36.3027 30.8133 36.398 30.718C36.4933 30.6227 36.6147 30.575 36.762 30.575H38.075C38.2483 30.575 38.3783 30.6313 38.465 30.744C38.5603 30.848 38.5993 30.9867 38.582 31.16C38.556 31.5327 38.504 31.914 38.426 32.304C38.3567 32.6853 38.2527 33.071 38.114 33.461C38.426 33.7643 38.738 34.0287 39.05 34.254C39.3707 34.4707 39.6827 34.6657 39.986 34.839C40.22 34.969 40.2807 35.1423 40.168 35.359L39.297 36.399C39.1497 36.555 38.959 36.5593 38.725 36.412C38.1877 36.0827 37.685 35.671 37.217 35.177C36.775 35.8183 36.216 36.3687 35.54 36.828C35.41 36.9147 35.2887 36.9493 35.176 36.932C35.072 36.906 34.981 36.8497 34.903 36.763L34.24 36.087ZM49.257 42.158C49.0577 42.158 48.9017 42.0973 48.789 41.976C48.6763 41.8633 48.6157 41.7073 48.607 41.508L48.542 38.05C48.5333 37.8507 48.5897 37.6947 48.711 37.582C48.8323 37.4693 48.9927 37.4087 49.192 37.4L55.588 37.257C55.7873 37.2483 55.9477 37.3047 56.069 37.426C56.1903 37.5473 56.2467 37.7077 56.238 37.907L56.16 41.43C56.1513 41.6293 56.0907 41.7853 55.978 41.898C55.8653 42.0193 55.7093 42.08 55.51 42.08L49.257 42.158ZM50.778 40.403L54.067 40.364V39.012L50.778 39.064V40.403ZM54.652 36.659C54.392 36.659 54.262 36.529 54.262 36.269L54.184 30.77C54.184 30.51 54.3097 30.38 54.561 30.38H56.147C56.407 30.38 56.5327 30.51 56.524 30.77L56.394 36.269C56.3767 36.529 56.2467 36.659 56.004 36.659H54.652ZM47.099 35.502L46.969 30.965C46.9517 30.705 47.0773 30.575 47.346 30.575H48.776C48.906 30.575 48.997 30.6097 49.049 30.679C49.1097 30.7397 49.1443 30.835 49.153 30.965L49.192 34.631C49.7813 34.6397 50.401 34.618 51.051 34.566C51.701 34.5053 52.2903 34.4187 52.819 34.306C53.0703 34.2627 53.2133 34.3493 53.248 34.566L53.443 35.515C53.469 35.6537 53.456 35.7577 53.404 35.827C53.3607 35.8877 53.2827 35.9353 53.17 35.97C52.806 36.074 52.4117 36.165 51.987 36.243C51.571 36.321 51.1377 36.386 50.687 36.438C50.2363 36.4813 49.7813 36.516 49.322 36.542C48.8713 36.5593 48.4337 36.5637 48.009 36.555C47.411 36.5377 47.1077 36.2387 47.099 35.658V35.502Z" fill="white"/>
</svg>
