<svg width="80" height="98" viewBox="0 0 80 98" fill="none" xmlns="http://www.w3.org/2000/svg">
<rect width="80" height="97.5824" rx="20" fill="#75BEA1"/>
<path d="M40.9583 58.6667C42.1187 58.6667 43.2315 59.1276 44.0519 59.9481C44.8724 60.7685 45.3333 61.8813 45.3333 63.0417C45.3333 63.4284 45.487 63.7994 45.7605 64.0729C46.034 64.3464 46.4049 64.5 46.7917 64.5C47.1784 64.5 47.5494 64.3464 47.8229 64.0729C48.0964 63.7994 48.25 63.4284 48.25 63.0417C48.25 61.1078 47.4818 59.2531 46.1143 57.8857C44.7469 56.5182 42.8922 55.75 40.9583 55.75C40.5716 55.75 40.2006 55.9036 39.9271 56.1771C39.6536 56.4506 39.5 56.8216 39.5 57.2083C39.5 57.5951 39.6536 57.966 39.9271 58.2395C40.2006 58.513 40.5716 58.6667 40.9583 58.6667V58.6667Z" fill="white"/>
<path d="M40.9583 52.8334C43.6658 52.8334 46.2623 53.9089 48.1767 55.8234C50.0912 57.7378 51.1667 60.3343 51.1667 63.0417C51.1667 63.4285 51.3203 63.7995 51.5938 64.0729C51.8673 64.3464 52.2382 64.5001 52.625 64.5001C53.0118 64.5001 53.3827 64.3464 53.6562 64.0729C53.9297 63.7995 54.0833 63.4285 54.0833 63.0417C54.0833 59.5608 52.7005 56.2224 50.2391 53.761C47.7777 51.2996 44.4393 49.9167 40.9583 49.9167C40.5716 49.9167 40.2006 50.0704 39.9271 50.3439C39.6537 50.6174 39.5 50.9883 39.5 51.3751C39.5 51.7619 39.6537 52.1328 39.9271 52.4063C40.2006 52.6798 40.5716 52.8334 40.9583 52.8334V52.8334ZM53.7188 70.2022C53.6385 69.9681 53.5001 69.7582 53.3164 69.5924C53.1327 69.4265 52.9098 69.3102 52.6688 69.2542L43.9188 67.2563C43.6812 67.2025 43.434 67.209 43.1997 67.2752C42.9653 67.3414 42.7513 67.4653 42.5771 67.6355C42.3729 67.8251 42.3583 67.8397 41.4104 69.648C38.2651 68.1986 35.7448 65.668 34.3083 62.5167C36.1604 61.5834 36.175 61.5834 36.3646 61.3647C36.5348 61.1905 36.6587 60.9764 36.7249 60.7421C36.7911 60.5077 36.7976 60.2605 36.7438 60.023L34.7458 51.3751C34.6899 51.134 34.5735 50.9111 34.4077 50.7275C34.2419 50.5438 34.032 50.4053 33.7979 50.3251C33.4574 50.2034 33.1057 50.1155 32.7479 50.0626C32.3793 49.9771 32.0032 49.9283 31.625 49.9167C29.8458 49.9167 28.1396 50.6235 26.8815 51.8816C25.6234 53.1396 24.9167 54.8459 24.9167 56.6251C24.9244 62.579 27.293 68.2869 31.5031 72.497C35.7132 76.7071 41.4211 79.0757 47.375 79.0834C48.256 79.0834 49.1283 78.9099 49.9422 78.5728C50.7561 78.2356 51.4956 77.7415 52.1185 77.1186C52.7414 76.4957 53.2356 75.7561 53.5727 74.9422C53.9098 74.1284 54.0833 73.256 54.0833 72.3751C54.0838 72.0039 54.0545 71.6333 53.9958 71.2667C53.9346 70.9045 53.8418 70.5483 53.7188 70.2022V70.2022Z" fill="white"/>
<path d="M20.2716 16.644C19.9596 16.3927 19.7213 16.098 19.5566 15.76C19.4006 15.422 19.3226 15.0623 19.3226 14.681C19.3226 14.291 19.4006 13.9313 19.5566 13.602C19.7213 13.264 19.9596 12.9737 20.2716 12.731C20.5923 12.4797 20.9866 12.2847 21.4546 12.146C21.9226 11.9987 22.46 11.925 23.0666 11.925C23.6733 11.925 24.2106 11.9987 24.6786 12.146C25.1466 12.2847 25.5366 12.4797 25.8486 12.731C26.1693 12.9737 26.4076 13.264 26.5636 13.602C26.7283 13.9313 26.8106 14.291 26.8106 14.681C26.8106 15.0623 26.7283 15.422 26.5636 15.76C26.4076 16.098 26.1693 16.3927 25.8486 16.644C25.5366 16.8867 25.1466 17.0817 24.6786 17.229C24.2106 17.3677 23.6733 17.437 23.0666 17.437C22.46 17.437 21.9226 17.3677 21.4546 17.229C20.9866 17.0817 20.5923 16.8867 20.2716 16.644ZM21.6236 14.902C21.6236 15.2313 21.7623 15.5043 22.0396 15.721C22.317 15.9377 22.681 16.046 23.1316 16.046C23.5736 16.046 23.9333 15.9377 24.2106 15.721C24.4966 15.5043 24.6396 15.2313 24.6396 14.902C24.6396 14.5727 24.501 14.2997 24.2236 14.083C23.9463 13.8663 23.5823 13.758 23.1316 13.758C22.6896 13.758 22.3256 13.8663 22.0396 14.083C21.7623 14.2997 21.6236 14.5727 21.6236 14.902ZM18.6076 19.569C18.4863 19.5777 18.391 19.5473 18.3216 19.478C18.2523 19.4 18.2176 19.3003 18.2176 19.179V18.243C18.2176 18.1217 18.2523 18.0263 18.3216 17.957C18.391 17.8877 18.4863 17.853 18.6076 17.853L27.5256 17.801C27.647 17.801 27.7423 17.8357 27.8116 17.905C27.881 17.9743 27.9156 18.0697 27.9156 18.191V18.984C27.9156 19.1053 27.881 19.2007 27.8116 19.27C27.7423 19.3307 27.647 19.3653 27.5256 19.374L24.5746 19.439L24.5616 20.934C24.5443 21.194 24.4143 21.324 24.1716 21.324H22.7416C22.4816 21.324 22.3516 21.194 22.3516 20.934L22.3126 19.491L18.6076 19.569ZM20.2586 23.976C19.964 23.9847 19.7386 23.911 19.5826 23.755C19.4353 23.599 19.3573 23.3737 19.3486 23.079L19.2836 20.635C19.2663 20.375 19.392 20.245 19.6606 20.245L21.1686 20.219C21.42 20.219 21.5456 20.349 21.5456 20.609L21.5586 22.104L26.6546 22.156C26.906 22.156 27.0316 22.2687 27.0316 22.494V23.482C27.0316 23.7507 26.9146 23.885 26.6806 23.885L20.2586 23.976ZM32.6173 23.716C32.3399 23.4647 32.1233 23.17 31.9673 22.832C31.8199 22.5027 31.7463 22.1473 31.7463 21.766C31.7463 21.3847 31.8199 21.025 31.9673 20.687C32.1233 20.3403 32.3399 20.037 32.6173 19.777C32.8946 19.517 33.2239 19.309 33.6053 19.153C33.9953 18.997 34.4243 18.919 34.8923 18.919C35.3516 18.919 35.7719 18.997 36.1533 19.153C36.5433 19.309 36.8726 19.517 37.1413 19.777C37.4186 20.037 37.6309 20.3403 37.7783 20.687C37.9343 21.025 38.0123 21.3847 38.0123 21.766C38.0123 22.1473 37.9343 22.5027 37.7783 22.832C37.6309 23.17 37.4186 23.4647 37.1413 23.716C36.8726 23.9673 36.5433 24.1667 36.1533 24.314C35.7719 24.4613 35.3516 24.535 34.8923 24.535C34.4243 24.535 33.9953 24.4613 33.6053 24.314C33.2239 24.1667 32.8946 23.9673 32.6173 23.716ZM33.6963 21.766C33.6963 22.0953 33.8133 22.3683 34.0473 22.585C34.2813 22.8017 34.5889 22.91 34.9703 22.91C35.3429 22.91 35.6463 22.8017 35.8803 22.585C36.1143 22.3683 36.2313 22.0953 36.2313 21.766C36.2313 21.4367 36.1143 21.1637 35.8803 20.947C35.6463 20.7217 35.3429 20.609 34.9703 20.609C34.5716 20.609 34.2596 20.7217 34.0343 20.947C33.8089 21.1637 33.6963 21.4367 33.6963 21.766ZM36.6473 18.919C36.3873 18.919 36.2573 18.789 36.2573 18.529L36.1793 12.77C36.1793 12.51 36.3049 12.38 36.5563 12.38H38.1423C38.4023 12.38 38.5279 12.51 38.5193 12.77L38.5063 13.446H39.5333C39.6719 13.446 39.7803 13.4893 39.8583 13.576C39.9449 13.654 39.9883 13.7623 39.9883 13.901V14.837C39.9883 14.9757 39.9449 15.0883 39.8583 15.175C39.7803 15.253 39.6719 15.292 39.5333 15.292H38.4543L38.4413 15.786H39.5333C39.6719 15.786 39.7803 15.8293 39.8583 15.916C39.9449 15.994 39.9883 16.1023 39.9883 16.241V17.177C39.9883 17.3157 39.9449 17.4283 39.8583 17.515C39.7803 17.593 39.6719 17.632 39.5333 17.632H38.4023L38.3893 18.529C38.3719 18.789 38.2419 18.919 37.9993 18.919H36.6473ZM29.6273 17.853C29.3413 17.567 29.1203 17.2333 28.9643 16.852C28.8169 16.4707 28.7433 16.059 28.7433 15.617C28.7433 15.175 28.8169 14.759 28.9643 14.369C29.1203 13.979 29.3413 13.641 29.6273 13.355C29.9133 13.0603 30.2556 12.8307 30.6543 12.666C31.0529 12.4927 31.4993 12.406 31.9933 12.406C32.4873 12.406 32.9293 12.4927 33.3193 12.666C33.7179 12.8307 34.0559 13.0603 34.3333 13.355C34.6193 13.641 34.8359 13.979 34.9833 14.369C35.1393 14.759 35.2173 15.175 35.2173 15.617C35.2173 16.059 35.1393 16.4707 34.9833 16.852C34.8359 17.2333 34.6193 17.567 34.3333 17.853C34.0559 18.1303 33.7179 18.3513 33.3193 18.516C32.9293 18.672 32.4873 18.75 31.9933 18.75C31.4993 18.75 31.0529 18.672 30.6543 18.516C30.2556 18.3513 29.9133 18.1303 29.6273 17.853ZM31.1353 16.553C31.3779 16.7957 31.7073 16.917 32.1233 16.917C32.5306 16.917 32.8556 16.7957 33.0983 16.553C33.3409 16.3017 33.4623 15.9897 33.4623 15.617C33.4623 15.2443 33.3409 14.9323 33.0983 14.681C32.8556 14.4297 32.5306 14.304 32.1233 14.304C31.6899 14.304 31.3563 14.4297 31.1223 14.681C30.8969 14.9323 30.7843 15.2443 30.7843 15.617C30.7843 15.9897 30.9013 16.3017 31.1353 16.553ZM41.7293 15.019C41.5126 15.019 41.4043 14.9107 41.4043 14.694V13.264C41.4043 13.0473 41.5126 12.939 41.7293 12.939H48.8923C49.1176 12.939 49.3039 13.004 49.4513 13.134C49.5986 13.2553 49.6723 13.4503 49.6723 13.719V13.979C49.6723 14.8457 49.6289 15.708 49.5423 16.566C49.4643 17.4153 49.3343 18.2863 49.1523 19.179C49.1003 19.4303 48.9443 19.556 48.6843 19.556L47.4623 19.517C47.3496 19.517 47.2543 19.478 47.1763 19.4C47.1069 19.322 47.0809 19.2137 47.0983 19.075C47.1329 18.7197 47.1633 18.3557 47.1893 17.983C47.2239 17.6103 47.2499 17.2463 47.2673 16.891C47.2933 16.5357 47.3063 16.1977 47.3063 15.877C47.3149 15.5563 47.3149 15.2703 47.3063 15.019H41.7293ZM41.0403 22.689C40.9189 22.6977 40.8236 22.663 40.7543 22.585C40.6849 22.5157 40.6503 22.4203 40.6503 22.299V21.233C40.6503 21.1117 40.6849 21.0163 40.7543 20.947C40.8236 20.8777 40.9189 20.843 41.0403 20.843H42.1583L42.1453 18.1C42.1366 17.84 42.2579 17.7057 42.5093 17.697H43.8873C44.1646 17.6797 44.2946 17.8053 44.2773 18.074L44.2513 20.83H44.6933L44.6803 18.1C44.6716 17.84 44.7929 17.7057 45.0443 17.697H46.4223C46.6996 17.6797 46.8296 17.8053 46.8123 18.074L46.7863 20.83L49.9583 20.817C50.0796 20.817 50.1749 20.8517 50.2443 20.921C50.3136 20.9903 50.3483 21.0857 50.3483 21.207V22.13C50.3483 22.2513 50.3136 22.3423 50.2443 22.403C50.1749 22.4723 50.0796 22.5113 49.9583 22.52L41.0403 22.689ZM51.2539 21.155C51.2539 21.0337 51.2886 20.9383 51.3579 20.869C51.4272 20.7997 51.5226 20.765 51.6439 20.765C51.9819 20.765 52.3199 20.765 52.6579 20.765C52.9959 20.7563 53.3339 20.7477 53.6719 20.739L53.6589 19.478C53.5982 19.4607 53.5376 19.439 53.4769 19.413C53.1042 19.283 52.7792 19.0967 52.5019 18.854C52.2332 18.6113 52.0209 18.3167 51.8649 17.97C51.7089 17.6147 51.6309 17.2117 51.6309 16.761C51.6309 16.2323 51.7739 15.7513 52.0599 15.318L51.3839 15.331C51.2626 15.331 51.1672 15.2963 51.0979 15.227C51.0286 15.1577 50.9939 15.0623 50.9939 14.941V13.901C50.9939 13.7797 51.0286 13.6843 51.0979 13.615C51.1672 13.5457 51.2626 13.511 51.3839 13.511H53.5029L53.5679 12.367C53.5852 12.0723 53.7499 11.9467 54.0619 11.99L55.5179 12.185C55.8039 12.2197 55.9296 12.3843 55.8949 12.679L55.7779 13.498H57.9619C58.1786 13.498 58.2869 13.6063 58.2869 13.823V14.85C58.2869 15.0667 58.1786 15.175 57.9619 15.175L57.1949 15.201C57.3596 15.4177 57.4852 15.656 57.5719 15.916C57.6672 16.176 57.7149 16.4577 57.7149 16.761C57.7149 17.2117 57.6369 17.6147 57.4809 17.97C57.3249 18.3167 57.1126 18.6113 56.8439 18.854C56.5752 19.0967 56.2546 19.283 55.8819 19.413C55.8472 19.4303 55.8126 19.4433 55.7779 19.452L55.7649 20.622C56.1462 20.596 56.5189 20.5613 56.8829 20.518C57.2469 20.4747 57.6109 20.4227 57.9749 20.362C58.1916 20.3273 58.3259 20.4313 58.3779 20.674L58.5339 21.532C58.5599 21.6533 58.5382 21.7443 58.4689 21.805C58.3996 21.8657 58.3129 21.909 58.2089 21.935C57.7669 22.039 57.2816 22.13 56.7529 22.208C56.2242 22.286 55.6782 22.3467 55.1149 22.39C54.5516 22.442 53.9752 22.481 53.3859 22.507C52.7966 22.533 52.2159 22.546 51.6439 22.546C51.5226 22.546 51.4272 22.5113 51.3579 22.442C51.2886 22.3727 51.2539 22.2773 51.2539 22.156V21.155ZM59.4179 22.754C59.1579 22.754 59.0279 22.624 59.0279 22.364V13.16C59.0279 12.9 59.1536 12.77 59.4049 12.77H60.9909C61.2509 12.77 61.3766 12.9 61.3679 13.16L61.0819 22.364C61.0819 22.624 60.9519 22.754 60.6919 22.754H59.4179ZM53.6849 17.32C53.7542 17.4847 53.8452 17.6233 53.9579 17.736C54.0792 17.8487 54.2136 17.9353 54.3609 17.996C54.5169 18.048 54.6729 18.074 54.8289 18.074C54.9762 18.074 55.1236 18.048 55.2709 17.996C55.4269 17.9353 55.5612 17.8487 55.6739 17.736C55.7952 17.6233 55.8906 17.4847 55.9599 17.32C56.0379 17.1553 56.0769 16.969 56.0769 16.761C56.0769 16.553 56.0379 16.3667 55.9599 16.202C55.8906 16.0373 55.7952 15.903 55.6739 15.799C55.5612 15.6863 55.4269 15.5997 55.2709 15.539C55.1236 15.4783 54.9762 15.448 54.8289 15.448C54.6729 15.448 54.5169 15.4783 54.3609 15.539C54.2136 15.5997 54.0792 15.6863 53.9579 15.799C53.8452 15.903 53.7542 16.0373 53.6849 16.202C53.6156 16.3667 53.5809 16.553 53.5809 16.761C53.5809 16.969 53.6156 17.1553 53.6849 17.32ZM31.3554 40.754C31.0954 40.754 30.9654 40.624 30.9654 40.364V31.16C30.9654 30.9 31.0911 30.77 31.3424 30.77H32.9284C33.1884 30.77 33.3141 30.9 33.3054 31.16L33.2144 33.994L34.4234 33.981C34.5621 33.981 34.6704 34.0243 34.7484 34.111C34.8351 34.189 34.8784 34.2973 34.8784 34.436V35.502C34.8784 35.6407 34.8351 35.7533 34.7484 35.84C34.6704 35.918 34.5621 35.957 34.4234 35.957L33.1494 35.983L33.0194 40.364C33.0194 40.624 32.8894 40.754 32.6294 40.754H31.3554ZM23.3084 38.375C23.1957 38.2017 23.2391 38.0197 23.4384 37.829C24.3224 37.023 24.9681 36.0957 25.3754 35.047C25.7827 33.9983 25.9691 32.811 25.9344 31.485C25.9257 31.2857 25.9734 31.1383 26.0774 31.043C26.1814 30.9477 26.3071 30.9 26.4544 30.9H27.8454C28.0187 30.9 28.1487 30.9563 28.2354 31.069C28.3221 31.173 28.3611 31.3117 28.3524 31.485C28.3351 31.9963 28.2917 32.4947 28.2224 32.98C28.1617 33.4567 28.0664 33.929 27.9364 34.397C28.2571 34.9343 28.6341 35.437 29.0674 35.905C29.5007 36.3643 29.9384 36.776 30.3804 37.14C30.4931 37.2353 30.5494 37.335 30.5494 37.439C30.5581 37.5343 30.5321 37.6167 30.4714 37.686L29.3534 38.635C29.2841 38.7217 29.1974 38.7737 29.0934 38.791C28.9894 38.8083 28.8811 38.7693 28.7684 38.674C28.1617 38.128 27.5854 37.4173 27.0394 36.542C26.7534 37.036 26.4111 37.4997 26.0124 37.933C25.6224 38.3577 25.1631 38.765 24.6344 39.155C24.5131 39.2417 24.3917 39.2677 24.2704 39.233C24.1577 39.1983 24.0667 39.1333 23.9974 39.038L23.3084 38.375ZM36.7425 35.97C36.5432 35.97 36.3872 35.9137 36.2745 35.801C36.1618 35.6797 36.1012 35.5193 36.0925 35.32L36.0275 31.303C36.0188 31.1037 36.0752 30.9477 36.1965 30.835C36.3178 30.7223 36.4782 30.6617 36.6775 30.653L43.5935 30.64C43.7928 30.6313 43.9532 30.6877 44.0745 30.809C44.1958 30.9303 44.2522 31.0907 44.2435 31.29L44.1655 35.268C44.1568 35.4673 44.0962 35.6277 43.9835 35.749C43.8708 35.8617 43.7148 35.918 43.5155 35.918L36.7425 35.97ZM38.2895 34.098L42.0725 34.085L42.0465 32.46L38.2635 32.473L38.2895 34.098ZM35.6765 38.609C35.5552 38.6177 35.4598 38.5873 35.3905 38.518C35.3212 38.44 35.2865 38.3403 35.2865 38.219V37.153C35.2865 37.0317 35.3212 36.9363 35.3905 36.867C35.4598 36.7977 35.5552 36.763 35.6765 36.763L44.5945 36.737C44.7158 36.737 44.8112 36.7717 44.8805 36.841C44.9498 36.9103 44.9845 37.0057 44.9845 37.127V38.05C44.9845 38.1713 44.9498 38.2667 44.8805 38.336C44.8112 38.3967 44.7158 38.4313 44.5945 38.44L41.3315 38.505L41.2925 40.975C41.2752 41.235 41.1452 41.365 40.9025 41.365H39.3685C39.1085 41.365 38.9785 41.235 38.9785 40.975L38.9395 38.544L35.6765 38.609ZM48.6461 42.197C48.4728 42.197 48.3341 42.1407 48.2301 42.028C48.1261 41.924 48.0698 41.7853 48.0611 41.612L48.0221 39.48C48.0135 39.3067 48.0655 39.168 48.1781 39.064C48.2908 38.96 48.4338 38.9037 48.6071 38.895L53.3911 38.804L53.4041 38.206L48.3211 38.284C48.1998 38.284 48.1045 38.2493 48.0351 38.18C47.9658 38.102 47.9311 38.0067 47.9311 37.894V37.127C47.9311 36.867 48.0611 36.737 48.3211 36.737L55.1461 36.646C55.3368 36.6373 55.4841 36.685 55.5881 36.789C55.6921 36.893 55.7398 37.0403 55.7311 37.231L55.6531 39.519C55.6445 39.6923 55.5881 39.831 55.4841 39.935C55.3801 40.039 55.2415 40.0953 55.0681 40.104L50.3101 40.143V40.689L55.4451 40.754C55.5665 40.754 55.6618 40.7887 55.7311 40.858C55.8005 40.9273 55.8351 41.0227 55.8351 41.144L55.8221 41.768C55.8221 41.8893 55.7875 41.9847 55.7181 42.054C55.6488 42.1233 55.5535 42.158 55.4321 42.158L48.6461 42.197ZM54.1061 36.269C53.8461 36.269 53.7161 36.139 53.7161 35.879L53.6381 30.77C53.6381 30.51 53.7638 30.38 54.0151 30.38H55.6011C55.8611 30.38 55.9868 30.51 55.9781 30.77L55.8481 35.879C55.8308 36.139 55.7008 36.269 55.4581 36.269H54.1061ZM45.5911 35.632C45.5218 35.554 45.4871 35.463 45.4871 35.359C45.4958 35.2463 45.5608 35.151 45.6821 35.073C46.0375 34.839 46.3711 34.566 46.6831 34.254C46.9951 33.942 47.2681 33.6083 47.5021 33.253C47.7361 32.8977 47.9225 32.5293 48.0611 32.148C48.1998 31.758 48.2778 31.3637 48.2951 30.965C48.3038 30.7657 48.3558 30.6183 48.4511 30.523C48.5465 30.4277 48.6678 30.38 48.8151 30.38H50.2061C50.3795 30.38 50.5095 30.4363 50.5961 30.549C50.6828 30.653 50.7218 30.7917 50.7131 30.965C50.6785 31.563 50.5268 32.1653 50.2581 32.772C50.6741 33.136 51.0945 33.4437 51.5191 33.695C51.9525 33.9377 52.3901 34.1587 52.8321 34.358C52.9621 34.4187 53.0315 34.501 53.0401 34.605C53.0575 34.7003 53.0358 34.7957 52.9751 34.891L52.2601 35.931C52.1995 36.035 52.1171 36.0957 52.0131 36.113C51.9178 36.1217 51.8095 36.0957 51.6881 36.035C51.2721 35.8183 50.8605 35.5757 50.4531 35.307C50.0458 35.0383 49.6601 34.7177 49.2961 34.345C48.6288 35.177 47.8271 35.853 46.8911 36.373C46.6311 36.5117 46.4188 36.49 46.2541 36.308L45.5911 35.632Z" fill="white"/>
</svg>
