<svg width="80" height="98" viewBox="0 0 80 98" fill="none" xmlns="http://www.w3.org/2000/svg">
<rect width="80" height="97.5824" rx="20" fill="#75BEA1"/>
<path d="M40.9583 58.6667C42.1187 58.6667 43.2315 59.1276 44.0519 59.9481C44.8724 60.7685 45.3333 61.8813 45.3333 63.0417C45.3333 63.4284 45.487 63.7994 45.7605 64.0729C46.034 64.3464 46.4049 64.5 46.7917 64.5C47.1784 64.5 47.5494 64.3464 47.8229 64.0729C48.0964 63.7994 48.25 63.4284 48.25 63.0417C48.25 61.1078 47.4818 59.2531 46.1143 57.8857C44.7469 56.5182 42.8922 55.75 40.9583 55.75C40.5716 55.75 40.2006 55.9036 39.9271 56.1771C39.6536 56.4506 39.5 56.8216 39.5 57.2083C39.5 57.5951 39.6536 57.966 39.9271 58.2395C40.2006 58.513 40.5716 58.6667 40.9583 58.6667V58.6667Z" fill="white"/>
<path d="M40.9583 52.8332C43.6657 52.8332 46.2623 53.9087 48.1767 55.8231C50.0911 57.7376 51.1667 60.3341 51.1667 63.0415C51.1667 63.4283 51.3203 63.7992 51.5938 64.0727C51.8673 64.3462 52.2382 64.4998 52.625 64.4998C53.0118 64.4998 53.3827 64.3462 53.6562 64.0727C53.9297 63.7992 54.0833 63.4283 54.0833 63.0415C54.0833 59.5605 52.7005 56.2221 50.2391 53.7607C47.7777 51.2993 44.4393 49.9165 40.9583 49.9165C40.5716 49.9165 40.2006 50.0701 39.9271 50.3436C39.6536 50.6171 39.5 50.9881 39.5 51.3748C39.5 51.7616 39.6536 52.1325 39.9271 52.406C40.2006 52.6795 40.5716 52.8332 40.9583 52.8332V52.8332ZM53.7187 70.2019C53.6385 69.9678 53.5001 69.758 53.3164 69.5921C53.1327 69.4263 52.9098 69.3099 52.6687 69.254L43.9187 67.2561C43.6812 67.2022 43.434 67.2087 43.1997 67.275C42.9653 67.3412 42.7513 67.4651 42.5771 67.6353C42.3729 67.8248 42.3583 67.8394 41.4104 69.6478C38.2651 68.1984 35.7448 65.6678 34.3083 62.5165C36.1604 61.5832 36.175 61.5832 36.3646 61.3644C36.5348 61.1902 36.6587 60.9762 36.7249 60.7418C36.7911 60.5075 36.7976 60.2603 36.7437 60.0228L34.7458 51.3748C34.6899 51.1338 34.5735 50.9109 34.4077 50.7272C34.2419 50.5435 34.032 50.405 33.7979 50.3248C33.4573 50.2032 33.1057 50.1153 32.7479 50.0623C32.3793 49.9769 32.0032 49.928 31.625 49.9165C29.8458 49.9165 28.1395 50.6233 26.8815 51.8813C25.6234 53.1394 24.9167 54.8457 24.9167 56.6248C24.9244 62.5788 27.293 68.2867 31.5031 72.4968C35.7132 76.7068 41.421 79.0755 47.375 79.0832C48.2559 79.0832 49.1283 78.9097 49.9422 78.5725C50.7561 78.2354 51.4956 77.7413 52.1185 77.1183C52.7414 76.4954 53.2356 75.7559 53.5727 74.942C53.9098 74.1281 54.0833 73.2558 54.0833 72.3748C54.0838 72.0037 54.0545 71.633 53.9958 71.2665C53.9345 70.9043 53.8418 70.5481 53.7187 70.2019V70.2019Z" fill="white"/>
<path d="M25.8532 24.158C25.6539 24.158 25.4979 24.0973 25.3852 23.976C25.2725 23.8633 25.2119 23.7073 25.2032 23.508L25.1382 20.05C25.1295 19.8507 25.1859 19.6947 25.3072 19.582C25.4285 19.4693 25.5889 19.4087 25.7882 19.4L32.1842 19.257C32.3835 19.2483 32.5439 19.3047 32.6652 19.426C32.7865 19.5473 32.8429 19.7077 32.8342 19.907L32.7562 23.43C32.7475 23.6293 32.6869 23.7853 32.5742 23.898C32.4615 24.0193 32.3055 24.08 32.1062 24.08L25.8532 24.158ZM27.3742 22.403L30.6632 22.364V21.012L27.3742 21.064V22.403ZM31.2482 18.659C30.9882 18.659 30.8582 18.529 30.8582 18.269L30.7802 12.77C30.7802 12.51 30.9059 12.38 31.1572 12.38H32.7432C33.0032 12.38 33.1289 12.51 33.1202 12.77L32.9902 18.269C32.9729 18.529 32.8429 18.659 32.6002 18.659H31.2482ZM25.7882 18.269C25.6669 18.217 25.5975 18.1347 25.5802 18.022C25.5715 17.9007 25.6019 17.7707 25.6712 17.632C25.8965 17.1987 26.0829 16.7263 26.2302 16.215C26.3775 15.7037 26.4729 15.1967 26.5162 14.694H23.3312C23.1145 14.694 23.0062 14.5857 23.0062 14.369V13.134C23.0062 12.9173 23.1145 12.809 23.3312 12.809H28.1932C28.4185 12.809 28.6049 12.874 28.7522 13.004C28.8995 13.1253 28.9732 13.3203 28.9732 13.589V13.719C28.9732 14.551 28.8259 15.3787 28.5312 16.202C28.2365 17.0167 27.8595 17.7663 27.4002 18.451C27.3395 18.5377 27.2572 18.6113 27.1532 18.672C27.0492 18.7327 26.9365 18.737 26.8152 18.685L25.7882 18.269ZM40.9577 22.754C40.6977 22.754 40.5677 22.624 40.5677 22.364L40.5287 19.647H39.1377H39.1247C38.9167 19.881 38.6654 20.076 38.3707 20.232C38.0067 20.414 37.582 20.505 37.0967 20.505C36.6027 20.505 36.1737 20.414 35.8097 20.232C35.4457 20.0413 35.138 19.7857 34.8867 19.465C34.644 19.1357 34.462 18.7543 34.3407 18.321C34.2194 17.879 34.1587 17.411 34.1587 16.917C34.1587 16.423 34.2194 15.955 34.3407 15.513C34.462 15.071 34.644 14.681 34.8867 14.343C35.138 14.005 35.4457 13.7407 35.8097 13.55C36.1737 13.3507 36.6027 13.251 37.0967 13.251C37.582 13.251 38.0067 13.3507 38.3707 13.55C38.7347 13.7407 39.038 14.005 39.2807 14.343C39.324 14.4123 39.3674 14.4817 39.4107 14.551H40.4507L40.4377 13.29C40.4377 13.03 40.5634 12.9 40.8147 12.9H42.2707C42.5307 12.9 42.6564 13.03 42.6477 13.29L42.4917 22.364C42.4917 22.624 42.3617 22.754 42.1017 22.754H40.9577ZM43.4147 22.754C43.1547 22.754 43.0247 22.624 43.0247 22.364V13.16C43.0247 12.9 43.1504 12.77 43.4017 12.77H44.8577C45.1177 12.77 45.2434 12.9 45.2347 13.16L44.9487 22.364C44.9487 22.624 44.8187 22.754 44.5587 22.754H43.4147ZM36.4857 18.087C36.659 18.3903 36.906 18.542 37.2267 18.542C37.5387 18.542 37.777 18.3903 37.9417 18.087C38.115 17.775 38.2017 17.385 38.2017 16.917C38.2017 16.683 38.18 16.4663 38.1367 16.267C38.0934 16.0677 38.0284 15.8943 37.9417 15.747C37.8637 15.5997 37.764 15.487 37.6427 15.409C37.5214 15.3223 37.3827 15.279 37.2267 15.279C36.8887 15.279 36.6374 15.435 36.4727 15.747C36.3167 16.059 36.2387 16.449 36.2387 16.917C36.2387 17.385 36.321 17.775 36.4857 18.087ZM40.5027 17.671L40.4767 16.527H39.9957C40.0044 16.657 40.0087 16.787 40.0087 16.917C40.0087 17.177 39.9914 17.4283 39.9567 17.671H40.5027ZM50.0987 23.768C49.8214 23.5253 49.6047 23.2393 49.4487 22.91C49.3014 22.5893 49.2277 22.2383 49.2277 21.857C49.2277 21.4757 49.3014 21.1203 49.4487 20.791C49.6047 20.453 49.8214 20.1583 50.0987 19.907C50.376 19.6557 50.7054 19.4607 51.0867 19.322C51.4767 19.1747 51.9057 19.101 52.3737 19.101C52.833 19.101 53.2534 19.1747 53.6347 19.322C54.0247 19.4607 54.354 19.6557 54.6227 19.907C54.9 20.1583 55.1124 20.453 55.2597 20.791C55.4157 21.1203 55.4937 21.4757 55.4937 21.857C55.4937 22.2383 55.4157 22.5893 55.2597 22.91C55.1124 23.2393 54.9 23.5253 54.6227 23.768C54.354 24.0107 54.0247 24.197 53.6347 24.327C53.2534 24.4657 52.833 24.535 52.3737 24.535C51.9057 24.535 51.4767 24.4657 51.0867 24.327C50.7054 24.197 50.376 24.0107 50.0987 23.768ZM51.1777 21.857C51.1777 22.1777 51.2947 22.4333 51.5287 22.624C51.7627 22.8147 52.0704 22.91 52.4517 22.91C52.8244 22.91 53.1277 22.8147 53.3617 22.624C53.5957 22.4333 53.7127 22.1777 53.7127 21.857C53.7127 21.5363 53.5957 21.2807 53.3617 21.09C53.1277 20.8907 52.8244 20.791 52.4517 20.791C52.053 20.791 51.741 20.8907 51.5157 21.09C51.2904 21.2807 51.1777 21.5363 51.1777 21.857ZM54.1287 19.179C53.8687 19.179 53.7387 19.049 53.7387 18.789L53.6607 12.77C53.6607 12.51 53.7864 12.38 54.0377 12.38H55.6237C55.8837 12.38 56.0094 12.51 56.0007 12.77L55.9487 14.746H57.0147C57.1534 14.746 57.2617 14.7893 57.3397 14.876C57.4264 14.954 57.4697 15.0623 57.4697 15.201V16.267C57.4697 16.4057 57.4264 16.5183 57.3397 16.605C57.2617 16.683 57.1534 16.722 57.0147 16.722H55.9097L55.8707 18.789C55.8534 19.049 55.7234 19.179 55.4807 19.179H54.1287ZM46.5627 15.76C46.5627 15.4567 46.645 15.2313 46.8097 15.084C46.9744 14.928 47.191 14.85 47.4597 14.85L50.2157 14.837V14.252H47.1867C47.048 14.252 46.9354 14.213 46.8487 14.135C46.7707 14.0483 46.7317 13.9357 46.7317 13.797V12.952C46.7317 12.8133 46.7707 12.705 46.8487 12.627C46.9354 12.5403 47.048 12.497 47.1867 12.497L51.4767 12.523C51.7454 12.523 51.962 12.601 52.1267 12.757C52.3 12.9043 52.3824 13.1297 52.3737 13.433L52.3087 15.604C52.3 15.89 52.222 16.111 52.0747 16.267C51.9274 16.423 51.702 16.5053 51.3987 16.514L48.6947 16.553V17.151C49.2754 17.1683 49.8994 17.164 50.5667 17.138C51.234 17.112 51.8667 17.06 52.4647 16.982C52.6034 16.9647 52.6987 16.982 52.7507 17.034C52.8114 17.0773 52.8504 17.1597 52.8677 17.281L52.9717 18.139C52.9977 18.3643 52.8937 18.5073 52.6597 18.568C52.3477 18.646 51.988 18.7153 51.5807 18.776C51.182 18.828 50.7574 18.8713 50.3067 18.906C49.856 18.9407 49.3924 18.9667 48.9157 18.984C48.439 18.9927 47.971 18.9927 47.5117 18.984C46.905 18.9667 46.6017 18.6677 46.6017 18.087L46.5627 15.76ZM26.5975 41.976C26.3028 41.9847 26.0775 41.911 25.9215 41.755C25.7742 41.599 25.6962 41.3737 25.6875 41.079L25.6095 38.245C25.5922 37.985 25.7178 37.855 25.9865 37.855H27.4165C27.6678 37.855 27.7935 37.985 27.7935 38.245L27.7675 40.104L32.7335 40.156C32.9848 40.156 33.1105 40.2687 33.1105 40.494V41.482C33.1105 41.7507 32.9935 41.885 32.7595 41.885L26.5975 41.976ZM31.3815 38.349C31.1215 38.349 30.9915 38.219 30.9915 37.959L30.9525 34.436H29.0025C28.8638 34.436 28.7512 34.397 28.6645 34.319C28.5865 34.2323 28.5475 34.1197 28.5475 33.981V32.902C28.5475 32.7633 28.5865 32.655 28.6645 32.577C28.7512 32.4903 28.8638 32.447 29.0025 32.447H30.9265L30.9135 30.77C30.9135 30.51 31.0392 30.38 31.2905 30.38H32.8765C33.1365 30.38 33.2622 30.51 33.2535 30.77L33.1235 37.959C33.1062 38.219 32.9762 38.349 32.7335 38.349H31.3815ZM22.8665 36.737C22.7972 36.659 22.7668 36.568 22.7755 36.464C22.7928 36.36 22.8535 36.2647 22.9575 36.178C23.3648 35.866 23.7202 35.5107 24.0235 35.112C24.3268 34.7133 24.5825 34.2973 24.7905 33.864C24.9985 33.422 25.1545 32.9713 25.2585 32.512C25.3712 32.0527 25.4362 31.602 25.4535 31.16C25.4622 30.9607 25.5142 30.8133 25.6095 30.718C25.7048 30.6227 25.8262 30.575 25.9735 30.575H27.3645C27.5378 30.575 27.6678 30.6313 27.7545 30.744C27.8412 30.848 27.8802 30.9867 27.8715 31.16C27.8195 32.0787 27.6115 32.967 27.2475 33.825C27.6462 34.1803 28.0665 34.4837 28.5085 34.735C28.9592 34.9777 29.4055 35.1857 29.8475 35.359C29.9775 35.411 30.0512 35.4933 30.0685 35.606C30.0858 35.71 30.0728 35.801 30.0295 35.879L29.4185 37.049C29.2972 37.257 29.1065 37.3047 28.8465 37.192C28.3785 37.01 27.9322 36.7803 27.5075 36.503C27.0915 36.2257 26.6928 35.879 26.3115 35.463C26.0255 35.853 25.7048 36.217 25.3495 36.555C24.9942 36.893 24.5998 37.2007 24.1665 37.478C24.0452 37.556 23.9282 37.5863 23.8155 37.569C23.7028 37.5517 23.6075 37.4997 23.5295 37.413L22.8665 36.737ZM38.868 41.781C38.582 41.5297 38.361 41.2307 38.205 40.884C38.049 40.546 37.971 40.182 37.971 39.792C37.971 39.402 38.049 39.0337 38.205 38.687C38.361 38.3317 38.582 38.024 38.868 37.764C39.154 37.504 39.492 37.296 39.882 37.14C40.2807 36.984 40.7183 36.906 41.195 36.906C41.663 36.906 42.092 36.984 42.482 37.14C42.8807 37.296 43.223 37.504 43.509 37.764C43.795 38.024 44.016 38.3317 44.172 38.687C44.328 39.0337 44.406 39.402 44.406 39.792C44.406 40.182 44.328 40.546 44.172 40.884C44.016 41.2307 43.795 41.5297 43.509 41.781C43.223 42.0323 42.8807 42.2317 42.482 42.379C42.092 42.5263 41.663 42.6 41.195 42.6C40.7183 42.6 40.2807 42.5263 39.882 42.379C39.492 42.2317 39.154 42.0323 38.868 41.781ZM39.921 39.792C39.921 40.13 40.0467 40.4117 40.298 40.637C40.5493 40.8623 40.8743 40.975 41.273 40.975C41.663 40.975 41.9837 40.8623 42.235 40.637C42.495 40.4117 42.625 40.13 42.625 39.792C42.625 39.454 42.495 39.1723 42.235 38.947C41.9837 38.713 41.663 38.596 41.273 38.596C40.857 38.596 40.5277 38.713 40.285 38.947C40.0423 39.1723 39.921 39.454 39.921 39.792ZM40.883 36.659C40.623 36.659 40.493 36.529 40.493 36.269L40.363 30.9C40.363 30.64 40.4887 30.51 40.74 30.51H42.131C42.391 30.51 42.5167 30.64 42.508 30.9L42.456 32.759H43.223V30.77C43.223 30.51 43.3487 30.38 43.6 30.38H44.991C45.251 30.38 45.3767 30.51 45.368 30.77L45.082 36.919C45.082 37.179 44.952 37.309 44.692 37.309H43.613C43.353 37.309 43.223 37.179 43.223 36.919V34.579H42.404L42.352 36.269C42.352 36.529 42.222 36.659 41.962 36.659H40.883ZM34.24 36.087C34.084 35.9137 34.1143 35.7273 34.331 35.528C34.955 34.93 35.423 34.2757 35.735 33.565C36.047 32.8543 36.216 32.0527 36.242 31.16C36.2507 30.9607 36.3027 30.8133 36.398 30.718C36.4933 30.6227 36.6147 30.575 36.762 30.575H38.075C38.2483 30.575 38.3783 30.6313 38.465 30.744C38.5603 30.848 38.5993 30.9867 38.582 31.16C38.556 31.5327 38.504 31.914 38.426 32.304C38.3567 32.6853 38.2527 33.071 38.114 33.461C38.426 33.7643 38.738 34.0287 39.05 34.254C39.3707 34.4707 39.6827 34.6657 39.986 34.839C40.22 34.969 40.2807 35.1423 40.168 35.359L39.297 36.399C39.1497 36.555 38.959 36.5593 38.725 36.412C38.1877 36.0827 37.685 35.671 37.217 35.177C36.775 35.8183 36.216 36.3687 35.54 36.828C35.41 36.9147 35.2887 36.9493 35.176 36.932C35.072 36.906 34.981 36.8497 34.903 36.763L34.24 36.087ZM49.257 42.158C49.0577 42.158 48.9017 42.0973 48.789 41.976C48.6763 41.8633 48.6157 41.7073 48.607 41.508L48.542 38.05C48.5333 37.8507 48.5897 37.6947 48.711 37.582C48.8323 37.4693 48.9927 37.4087 49.192 37.4L55.588 37.257C55.7873 37.2483 55.9477 37.3047 56.069 37.426C56.1903 37.5473 56.2467 37.7077 56.238 37.907L56.16 41.43C56.1513 41.6293 56.0907 41.7853 55.978 41.898C55.8653 42.0193 55.7093 42.08 55.51 42.08L49.257 42.158ZM50.778 40.403L54.067 40.364V39.012L50.778 39.064V40.403ZM54.652 36.659C54.392 36.659 54.262 36.529 54.262 36.269L54.184 30.77C54.184 30.51 54.3097 30.38 54.561 30.38H56.147C56.407 30.38 56.5327 30.51 56.524 30.77L56.394 36.269C56.3767 36.529 56.2467 36.659 56.004 36.659H54.652ZM47.099 35.502L46.969 30.965C46.9517 30.705 47.0773 30.575 47.346 30.575H48.776C48.906 30.575 48.997 30.6097 49.049 30.679C49.1097 30.7397 49.1443 30.835 49.153 30.965L49.192 34.631C49.7813 34.6397 50.401 34.618 51.051 34.566C51.701 34.5053 52.2903 34.4187 52.819 34.306C53.0703 34.2627 53.2133 34.3493 53.248 34.566L53.443 35.515C53.469 35.6537 53.456 35.7577 53.404 35.827C53.3607 35.8877 53.2827 35.9353 53.17 35.97C52.806 36.074 52.4117 36.165 51.987 36.243C51.571 36.321 51.1377 36.386 50.687 36.438C50.2363 36.4813 49.7813 36.516 49.322 36.542C48.8713 36.5593 48.4337 36.5637 48.009 36.555C47.411 36.5377 47.1077 36.2387 47.099 35.658V35.502Z" fill="white"/>
</svg>
