<svg width="80" height="98" viewBox="0 0 80 98" fill="none" xmlns="http://www.w3.org/2000/svg">
<rect width="80" height="97.5824" rx="20" fill="#F17B9B"/>
<path d="M40.9583 58.6667C42.1187 58.6667 43.2315 59.1276 44.0519 59.9481C44.8724 60.7685 45.3333 61.8813 45.3333 63.0417C45.3333 63.4284 45.487 63.7994 45.7605 64.0729C46.034 64.3464 46.4049 64.5 46.7917 64.5C47.1784 64.5 47.5494 64.3464 47.8229 64.0729C48.0964 63.7994 48.25 63.4284 48.25 63.0417C48.25 61.1078 47.4818 59.2531 46.1143 57.8857C44.7469 56.5182 42.8922 55.75 40.9583 55.75C40.5716 55.75 40.2006 55.9036 39.9271 56.1771C39.6536 56.4506 39.5 56.8216 39.5 57.2083C39.5 57.5951 39.6536 57.966 39.9271 58.2395C40.2006 58.513 40.5716 58.6667 40.9583 58.6667V58.6667Z" fill="white"/>
<path d="M40.9583 52.8334C43.6657 52.8334 46.2623 53.9089 48.1767 55.8234C50.0911 57.7378 51.1667 60.3343 51.1667 63.0417C51.1667 63.4285 51.3203 63.7995 51.5938 64.0729C51.8673 64.3464 52.2382 64.5001 52.625 64.5001C53.0118 64.5001 53.3827 64.3464 53.6562 64.0729C53.9297 63.7995 54.0833 63.4285 54.0833 63.0417C54.0833 59.5608 52.7005 56.2224 50.2391 53.761C47.7777 51.2996 44.4393 49.9167 40.9583 49.9167C40.5716 49.9167 40.2006 50.0704 39.9271 50.3439C39.6536 50.6174 39.5 50.9883 39.5 51.3751C39.5 51.7619 39.6536 52.1328 39.9271 52.4063C40.2006 52.6798 40.5716 52.8334 40.9583 52.8334V52.8334ZM53.7187 70.2022C53.6385 69.9681 53.5001 69.7582 53.3164 69.5924C53.1327 69.4265 52.9098 69.3102 52.6687 69.2542L43.9187 67.2563C43.6812 67.2025 43.434 67.209 43.1997 67.2752C42.9653 67.3414 42.7513 67.4653 42.5771 67.6355C42.3729 67.8251 42.3583 67.8397 41.4104 69.648C38.2651 68.1986 35.7448 65.668 34.3083 62.5167C36.1604 61.5834 36.175 61.5834 36.3646 61.3647C36.5348 61.1905 36.6587 60.9764 36.7249 60.7421C36.7911 60.5077 36.7976 60.2605 36.7437 60.023L34.7458 51.3751C34.6899 51.134 34.5735 50.9111 34.4077 50.7275C34.2419 50.5438 34.032 50.4053 33.7979 50.3251C33.4573 50.2034 33.1057 50.1155 32.7479 50.0626C32.3793 49.9771 32.0032 49.9283 31.625 49.9167C29.8458 49.9167 28.1395 50.6235 26.8815 51.8816C25.6234 53.1396 24.9167 54.8459 24.9167 56.6251C24.9244 62.579 27.293 68.2869 31.5031 72.497C35.7132 76.7071 41.421 79.0757 47.375 79.0834C48.2559 79.0834 49.1283 78.9099 49.9422 78.5728C50.7561 78.2356 51.4956 77.7415 52.1185 77.1186C52.7414 76.4957 53.2356 75.7561 53.5727 74.9422C53.9098 74.1284 54.0833 73.256 54.0833 72.3751C54.0838 72.0039 54.0545 71.6333 53.9958 71.2667C53.9345 70.9045 53.8418 70.5483 53.7187 70.2022V70.2022Z" fill="white"/>
<path d="M27.9898 23.716C27.7125 23.4647 27.4958 23.1657 27.3398 22.819C27.1925 22.481 27.1188 22.117 27.1188 21.727C27.1188 21.337 27.1925 20.9687 27.3398 20.622C27.4958 20.2667 27.7125 19.959 27.9898 19.699C28.2672 19.439 28.5965 19.231 28.9778 19.075C29.3678 18.919 29.7968 18.841 30.2648 18.841C30.7242 18.841 31.1445 18.919 31.5258 19.075C31.9158 19.231 32.2452 19.439 32.5138 19.699C32.7912 19.959 33.0035 20.2667 33.1508 20.622C33.3068 20.9687 33.3848 21.337 33.3848 21.727C33.3848 22.117 33.3068 22.481 33.1508 22.819C33.0035 23.1657 32.7912 23.4647 32.5138 23.716C32.2452 23.9673 31.9158 24.1667 31.5258 24.314C31.1445 24.4613 30.7242 24.535 30.2648 24.535C29.7968 24.535 29.3678 24.4613 28.9778 24.314C28.5965 24.1667 28.2672 23.9673 27.9898 23.716ZM29.0688 21.727C29.0688 22.065 29.1858 22.3467 29.4198 22.572C29.6538 22.7973 29.9615 22.91 30.3428 22.91C30.7155 22.91 31.0188 22.7973 31.2528 22.572C31.4868 22.3467 31.6038 22.065 31.6038 21.727C31.6038 21.389 31.4868 21.1073 31.2528 20.882C31.0188 20.648 30.7155 20.531 30.3428 20.531C29.9442 20.531 29.6322 20.648 29.4068 20.882C29.1815 21.1073 29.0688 21.389 29.0688 21.727ZM31.8898 18.789C31.6298 18.789 31.4998 18.659 31.4998 18.399L31.4218 12.77C31.4218 12.51 31.5475 12.38 31.7988 12.38H33.3848C33.6448 12.38 33.7705 12.51 33.7618 12.77L33.7228 14.551H34.9058C35.0445 14.551 35.1528 14.5943 35.2308 14.681C35.3175 14.759 35.3608 14.8673 35.3608 15.006V16.072C35.3608 16.2107 35.3175 16.3233 35.2308 16.41C35.1528 16.488 35.0445 16.527 34.9058 16.527H33.6708L33.6318 18.399C33.6145 18.659 33.4845 18.789 33.2418 18.789H31.8898ZM26.6898 18.659C26.5685 18.607 26.4992 18.5247 26.4818 18.412C26.4732 18.2907 26.5035 18.1607 26.5728 18.022C26.7982 17.528 26.9845 16.995 27.1318 16.423C27.2792 15.8423 27.3745 15.266 27.4178 14.694H24.3628C24.1462 14.694 24.0378 14.5857 24.0378 14.369V13.134C24.0378 12.9173 24.1462 12.809 24.3628 12.809H29.0948C29.3202 12.809 29.5065 12.874 29.6538 13.004C29.8012 13.1253 29.8748 13.3203 29.8748 13.589V13.719C29.8748 14.135 29.8358 14.5727 29.7578 15.032C29.6798 15.4827 29.5715 15.9333 29.4328 16.384C29.2942 16.8347 29.1252 17.2723 28.9258 17.697C28.7352 18.1217 28.5272 18.503 28.3018 18.841C28.2412 18.9277 28.1588 19.0057 28.0548 19.075C27.9508 19.1357 27.8382 19.1357 27.7168 19.075L26.6898 18.659ZM36.1589 22.689C36.0376 22.6977 35.9422 22.663 35.8729 22.585C35.8036 22.5157 35.7689 22.4203 35.7689 22.299V21.233C35.7689 21.1117 35.8036 21.0163 35.8729 20.947C35.9422 20.8777 36.0376 20.843 36.1589 20.843H37.4849L37.4719 19.452C37.4632 19.192 37.5846 19.0577 37.8359 19.049H38.2259C37.9052 18.7977 37.6539 18.49 37.4719 18.126C37.2986 17.762 37.2119 17.3503 37.2119 16.891C37.2119 16.3623 37.3462 15.8813 37.6149 15.448L36.5489 15.461C36.4276 15.461 36.3322 15.4263 36.2629 15.357C36.1936 15.2877 36.1589 15.1923 36.1589 15.071V14.018C36.1589 13.8967 36.1936 13.8013 36.2629 13.732C36.3322 13.6627 36.4276 13.628 36.5489 13.628H39.4869L39.6169 12.029C39.6429 11.7343 39.8076 11.6087 40.1109 11.652L41.6969 11.847C41.9829 11.8817 42.1086 12.0463 42.0739 12.341L41.9049 13.628L44.7519 13.615C44.9686 13.615 45.0769 13.7233 45.0769 13.94V14.98C45.0769 15.1967 44.9686 15.305 44.7519 15.305L43.5429 15.331C43.6902 15.5563 43.8072 15.799 43.8939 16.059C43.9806 16.3103 44.0239 16.5877 44.0239 16.891C44.0239 17.359 43.9329 17.775 43.7509 18.139C43.5689 18.503 43.3176 18.8107 42.9969 19.062H43.4909C43.7682 19.0447 43.8982 19.1703 43.8809 19.439L43.8549 20.817H45.0769C45.1982 20.817 45.2936 20.8517 45.3629 20.921C45.4322 20.9903 45.4669 21.0857 45.4669 21.207V22.13C45.4669 22.2513 45.4322 22.3423 45.3629 22.403C45.2936 22.4723 45.1982 22.5113 45.0769 22.52L36.1589 22.689ZM39.3569 16.748C39.3569 17.164 39.4912 17.4933 39.7599 17.736C40.0372 17.97 40.3882 18.087 40.8129 18.087C41.2376 18.087 41.5842 17.97 41.8529 17.736C42.1302 17.4933 42.2689 17.164 42.2689 16.748C42.2689 16.332 42.1302 16.007 41.8529 15.773C41.5842 15.5303 41.2376 15.409 40.8129 15.409C40.3882 15.409 40.0372 15.5303 39.7599 15.773C39.4912 16.007 39.3569 16.332 39.3569 16.748ZM39.7079 20.83H41.6319L41.6189 19.686C41.2896 19.7553 40.9602 19.79 40.6309 19.79C40.3102 19.79 40.0069 19.764 39.7209 19.712L39.7079 20.83ZM48.7125 23.963C48.4179 23.7377 48.1882 23.4647 48.0235 23.144C47.8589 22.8233 47.7765 22.4637 47.7765 22.065C47.7765 21.6923 47.8589 21.35 48.0235 21.038C48.1882 20.7173 48.4135 20.44 48.6995 20.206C48.9942 19.972 49.3452 19.79 49.7525 19.66C50.1685 19.53 50.6235 19.465 51.1175 19.465C51.6029 19.465 52.0492 19.53 52.4565 19.66C52.8725 19.79 53.2279 19.972 53.5225 20.206C53.8172 20.4313 54.0469 20.7043 54.2115 21.025C54.3762 21.337 54.4585 21.6837 54.4585 22.065C54.4585 22.455 54.3762 22.8103 54.2115 23.131C54.0469 23.4517 53.8129 23.7247 53.5095 23.95C53.2149 24.184 52.8639 24.3617 52.4565 24.483C52.0492 24.6043 51.6029 24.665 51.1175 24.665C50.6322 24.665 50.1859 24.6043 49.7785 24.483C49.3712 24.3617 49.0159 24.1883 48.7125 23.963ZM50.0125 22.065C50.0125 22.377 50.1295 22.624 50.3635 22.806C50.6062 22.9967 50.9355 23.092 51.3515 23.092C51.7502 23.092 52.0709 22.9967 52.3135 22.806C52.5562 22.624 52.6775 22.377 52.6775 22.065C52.6775 21.7617 52.5562 21.5147 52.3135 21.324C52.0709 21.1333 51.7502 21.038 51.3515 21.038C50.9182 21.038 50.5845 21.1333 50.3505 21.324C50.1252 21.5147 50.0125 21.7617 50.0125 22.065ZM46.8015 15.903C46.7495 15.7903 46.7409 15.682 46.7755 15.578C46.8189 15.4653 46.9099 15.3873 47.0485 15.344C47.4472 15.2227 47.8242 15.071 48.1795 14.889C48.5435 14.707 48.8685 14.499 49.1545 14.265C49.4405 14.031 49.6789 13.771 49.8695 13.485C50.0689 13.199 50.2075 12.8957 50.2855 12.575C50.3289 12.3757 50.3895 12.2283 50.4675 12.133C50.5455 12.0377 50.6582 11.99 50.8055 11.99H52.2355C52.4089 11.99 52.5345 12.0463 52.6125 12.159C52.6992 12.263 52.7295 12.4017 52.7035 12.575C52.6255 13.095 52.4652 13.576 52.2225 14.018C52.6819 14.2607 53.1499 14.447 53.6265 14.577C54.1032 14.707 54.6015 14.798 55.1215 14.85C55.2429 14.8673 55.3209 14.9323 55.3555 15.045C55.3902 15.149 55.3945 15.2487 55.3685 15.344L55.0565 16.501C55.0305 16.605 54.9699 16.6743 54.8745 16.709C54.7792 16.7437 54.6579 16.7523 54.5105 16.735C53.8605 16.6657 53.2452 16.527 52.6645 16.319C52.0925 16.1023 51.5465 15.8163 51.0265 15.461C50.5932 15.825 50.1035 16.137 49.5575 16.397C49.0115 16.6483 48.4179 16.839 47.7765 16.969C47.6465 16.995 47.5209 16.9907 47.3995 16.956C47.2869 16.9213 47.2089 16.852 47.1655 16.748L46.8015 15.903ZM46.6325 19.114C46.5112 19.1227 46.4159 19.0923 46.3465 19.023C46.2772 18.945 46.2425 18.8453 46.2425 18.724V17.723C46.2425 17.6017 46.2772 17.5063 46.3465 17.437C46.4159 17.3677 46.5112 17.333 46.6325 17.333L55.5505 17.281C55.6719 17.281 55.7672 17.3157 55.8365 17.385C55.9059 17.4543 55.9405 17.5497 55.9405 17.671V18.529C55.9405 18.6503 55.9059 18.7457 55.8365 18.815C55.7672 18.8757 55.6719 18.9103 55.5505 18.919L46.6325 19.114ZM21.4242 41.976C21.1295 41.9847 20.9042 41.911 20.7482 41.755C20.6008 41.599 20.5228 41.3737 20.5142 41.079L20.4362 38.375C20.4188 38.115 20.5445 37.985 20.8132 37.985H22.2432C22.4945 37.985 22.6202 38.115 22.6202 38.375L22.5942 40.104L27.5602 40.156C27.8115 40.156 27.9372 40.2687 27.9372 40.494V41.482C27.9372 41.7507 27.8202 41.885 27.5862 41.885L21.4242 41.976ZM26.2082 38.479C25.9482 38.479 25.8182 38.349 25.8182 38.089L25.7792 34.826H24.4792C24.3405 34.826 24.2278 34.787 24.1412 34.709C24.0632 34.6223 24.0242 34.5097 24.0242 34.371V33.357C24.0242 33.2183 24.0632 33.11 24.1412 33.032C24.2278 32.9453 24.3405 32.902 24.4792 32.902H25.7532L25.7402 30.77C25.7402 30.51 25.8658 30.38 26.1172 30.38H27.7032C27.9632 30.38 28.0888 30.51 28.0802 30.77L27.9502 38.089C27.9328 38.349 27.8028 38.479 27.5602 38.479H26.2082ZM18.0442 36.685C17.8968 36.4423 17.9618 36.243 18.2392 36.087C18.5945 35.879 18.9412 35.6493 19.2792 35.398C19.6258 35.138 19.9422 34.8607 20.2282 34.566C20.5142 34.2713 20.7612 33.968 20.9692 33.656C21.1772 33.3353 21.3202 33.0147 21.3982 32.694H18.6812C18.5252 32.694 18.3995 32.6463 18.3042 32.551C18.2088 32.4557 18.1612 32.33 18.1612 32.174V31.29C18.1612 31.134 18.2088 31.0083 18.3042 30.913C18.3995 30.8177 18.5252 30.77 18.6812 30.77H23.4782C23.7468 30.77 23.9462 30.848 24.0762 31.004C24.2148 31.1513 24.2538 31.3593 24.1932 31.628C23.9938 32.5467 23.5908 33.435 22.9842 34.293C23.2788 34.527 23.5778 34.7307 23.8812 34.904C24.1845 35.0773 24.4922 35.2377 24.8042 35.385C24.9428 35.4543 25.0208 35.541 25.0382 35.645C25.0642 35.7403 25.0338 35.8487 24.9472 35.97L24.3232 36.997C24.2365 37.1183 24.1412 37.1833 24.0372 37.192C23.9418 37.192 23.8422 37.1617 23.7382 37.101C23.3915 36.9017 23.0622 36.6807 22.7502 36.438C22.4382 36.1953 22.1435 35.918 21.8662 35.606C21.4762 35.9873 21.0558 36.334 20.6052 36.646C20.1545 36.9493 19.6778 37.2093 19.1752 37.426C19.0192 37.4953 18.8805 37.5127 18.7592 37.478C18.6378 37.4433 18.5425 37.3697 18.4732 37.257L18.0442 36.685ZM29.6906 40.689C29.5693 40.6977 29.474 40.663 29.4046 40.585C29.3353 40.5157 29.3006 40.4203 29.3006 40.299V39.233C29.3006 39.1117 29.3353 39.0163 29.4046 38.947C29.474 38.8777 29.5693 38.843 29.6906 38.843H33.0186L33.0056 36.88L31.0686 36.945C30.774 36.9537 30.5486 36.88 30.3926 36.724C30.2366 36.568 30.1586 36.3427 30.1586 36.048L30.0936 31.823C30.085 31.5197 30.1673 31.2943 30.3406 31.147C30.514 30.991 30.735 30.913 31.0036 30.913L37.7376 30.887C37.8763 30.887 37.9846 30.9303 38.0626 31.017C38.1493 31.095 38.1926 31.2033 38.1926 31.342V32.343C38.1926 32.4817 38.1493 32.5943 38.0626 32.681C37.9846 32.759 37.8763 32.798 37.7376 32.798L32.4206 32.863V34.943L37.8546 34.956C38.1406 34.956 38.2836 35.073 38.2836 35.307V36.36C38.2836 36.594 38.1623 36.7153 37.9196 36.724L35.3326 36.815L35.3066 38.83L38.6086 38.817C38.73 38.817 38.8253 38.8517 38.8946 38.921C38.964 38.9903 38.9986 39.0857 38.9986 39.207V40.13C38.9986 40.2513 38.964 40.3423 38.8946 40.403C38.8253 40.4723 38.73 40.5113 38.6086 40.52L29.6906 40.689ZM47.5483 40.754C47.2883 40.754 47.1583 40.624 47.1583 40.364V31.16C47.1583 30.9 47.2839 30.77 47.5353 30.77H49.1213C49.3813 30.77 49.5069 30.9 49.4983 31.16L49.4073 33.994L50.6163 33.981C50.7549 33.981 50.8633 34.0243 50.9413 34.111C51.0279 34.189 51.0713 34.2973 51.0713 34.436V35.502C51.0713 35.6407 51.0279 35.7533 50.9413 35.84C50.8633 35.918 50.7549 35.957 50.6163 35.957L49.3423 35.983L49.2123 40.364C49.2123 40.624 49.0823 40.754 48.8223 40.754H47.5483ZM39.5013 38.375C39.3886 38.2017 39.4319 38.0197 39.6313 37.829C40.5153 37.023 41.1609 36.0957 41.5683 35.047C41.9756 33.9983 42.1619 32.811 42.1273 31.485C42.1186 31.2857 42.1663 31.1383 42.2703 31.043C42.3743 30.9477 42.4999 30.9 42.6473 30.9H44.0383C44.2116 30.9 44.3416 30.9563 44.4283 31.069C44.5149 31.173 44.5539 31.3117 44.5453 31.485C44.5279 31.9963 44.4846 32.4947 44.4153 32.98C44.3546 33.4567 44.2593 33.929 44.1293 34.397C44.4499 34.9343 44.8269 35.437 45.2603 35.905C45.6936 36.3643 46.1313 36.776 46.5733 37.14C46.6859 37.2353 46.7423 37.335 46.7423 37.439C46.7509 37.5343 46.7249 37.6167 46.6643 37.686L45.5463 38.635C45.4769 38.7217 45.3903 38.7737 45.2863 38.791C45.1823 38.8083 45.0739 38.7693 44.9613 38.674C44.3546 38.128 43.7783 37.4173 43.2323 36.542C42.9463 37.036 42.6039 37.4997 42.2053 37.933C41.8153 38.3577 41.3559 38.765 40.8273 39.155C40.7059 39.2417 40.5846 39.2677 40.4633 39.233C40.3506 39.1983 40.2596 39.1333 40.1903 39.038L39.5013 38.375ZM54.4304 42.158C54.231 42.158 54.075 42.0973 53.9624 41.976C53.8497 41.8633 53.789 41.7073 53.7804 41.508L53.7154 38.05C53.7067 37.8507 53.763 37.6947 53.8844 37.582C54.0057 37.4693 54.166 37.4087 54.3654 37.4L60.7614 37.257C60.9607 37.2483 61.121 37.3047 61.2424 37.426C61.3637 37.5473 61.42 37.7077 61.4114 37.907L61.3334 41.43C61.3247 41.6293 61.264 41.7853 61.1514 41.898C61.0387 42.0193 60.8827 42.08 60.6834 42.08L54.4304 42.158ZM55.9514 40.403L59.2404 40.364V39.012L55.9514 39.064V40.403ZM59.8254 36.659C59.5654 36.659 59.4354 36.529 59.4354 36.269L59.3574 30.77C59.3574 30.51 59.483 30.38 59.7344 30.38H61.3204C61.5804 30.38 61.706 30.51 61.6974 30.77L61.5674 36.269C61.55 36.529 61.42 36.659 61.1774 36.659H59.8254ZM52.2724 35.502L52.1424 30.965C52.125 30.705 52.2507 30.575 52.5194 30.575H53.9494C54.0794 30.575 54.1704 30.6097 54.2224 30.679C54.283 30.7397 54.3177 30.835 54.3264 30.965L54.3654 34.631C54.9547 34.6397 55.5744 34.618 56.2244 34.566C56.8744 34.5053 57.4637 34.4187 57.9924 34.306C58.2437 34.2627 58.3867 34.3493 58.4214 34.566L58.6164 35.515C58.6424 35.6537 58.6294 35.7577 58.5774 35.827C58.534 35.8877 58.456 35.9353 58.3434 35.97C57.9794 36.074 57.585 36.165 57.1604 36.243C56.7444 36.321 56.311 36.386 55.8604 36.438C55.4097 36.4813 54.9547 36.516 54.4954 36.542C54.0447 36.5593 53.607 36.5637 53.1824 36.555C52.5844 36.5377 52.281 36.2387 52.2724 35.658V35.502Z" fill="white"/>
</svg>
