<svg width="80" height="98" viewBox="0 0 80 98" fill="none" xmlns="http://www.w3.org/2000/svg">
<rect width="80" height="97.5824" rx="20" fill="#F17B9B"/>
<path d="M40.9583 58.6667C42.1187 58.6667 43.2315 59.1276 44.0519 59.9481C44.8724 60.7685 45.3333 61.8813 45.3333 63.0417C45.3333 63.4284 45.487 63.7994 45.7605 64.0729C46.034 64.3464 46.4049 64.5 46.7917 64.5C47.1784 64.5 47.5494 64.3464 47.8229 64.0729C48.0964 63.7994 48.25 63.4284 48.25 63.0417C48.25 61.1078 47.4818 59.2531 46.1143 57.8857C44.7469 56.5182 42.8922 55.75 40.9583 55.75C40.5716 55.75 40.2006 55.9036 39.9271 56.1771C39.6536 56.4506 39.5 56.8216 39.5 57.2083C39.5 57.5951 39.6536 57.966 39.9271 58.2395C40.2006 58.513 40.5716 58.6667 40.9583 58.6667V58.6667Z" fill="white"/>
<path d="M40.9583 52.8334C43.6657 52.8334 46.2623 53.9089 48.1767 55.8234C50.0911 57.7378 51.1667 60.3343 51.1667 63.0417C51.1667 63.4285 51.3203 63.7995 51.5938 64.0729C51.8673 64.3464 52.2382 64.5001 52.625 64.5001C53.0118 64.5001 53.3827 64.3464 53.6562 64.0729C53.9297 63.7995 54.0833 63.4285 54.0833 63.0417C54.0833 59.5608 52.7005 56.2224 50.2391 53.761C47.7777 51.2996 44.4393 49.9167 40.9583 49.9167C40.5716 49.9167 40.2006 50.0704 39.9271 50.3439C39.6536 50.6174 39.5 50.9883 39.5 51.3751C39.5 51.7619 39.6536 52.1328 39.9271 52.4063C40.2006 52.6798 40.5716 52.8334 40.9583 52.8334V52.8334ZM53.7187 70.2022C53.6385 69.9681 53.5001 69.7582 53.3164 69.5924C53.1327 69.4265 52.9098 69.3102 52.6687 69.2542L43.9187 67.2563C43.6812 67.2025 43.434 67.209 43.1997 67.2752C42.9653 67.3414 42.7513 67.4653 42.5771 67.6355C42.3729 67.8251 42.3583 67.8397 41.4104 69.648C38.2651 68.1986 35.7448 65.668 34.3083 62.5167C36.1604 61.5834 36.175 61.5834 36.3646 61.3647C36.5348 61.1905 36.6587 60.9764 36.7249 60.7421C36.7911 60.5077 36.7976 60.2605 36.7437 60.023L34.7458 51.3751C34.6899 51.134 34.5735 50.9111 34.4077 50.7275C34.2419 50.5438 34.032 50.4053 33.7979 50.3251C33.4573 50.2034 33.1057 50.1155 32.7479 50.0626C32.3793 49.9771 32.0032 49.9283 31.625 49.9167C29.8458 49.9167 28.1395 50.6235 26.8815 51.8816C25.6234 53.1396 24.9167 54.8459 24.9167 56.6251C24.9244 62.579 27.293 68.2869 31.5031 72.497C35.7132 76.7071 41.421 79.0757 47.375 79.0834C48.2559 79.0834 49.1283 78.9099 49.9422 78.5728C50.7561 78.2356 51.4956 77.7415 52.1185 77.1186C52.7414 76.4957 53.2356 75.7561 53.5727 74.9422C53.9098 74.1284 54.0833 73.256 54.0833 72.3751C54.0838 72.0039 54.0545 71.6333 53.9958 71.2667C53.9345 70.9045 53.8418 70.5483 53.7187 70.2022V70.2022Z" fill="white"/>
<path d="M31.3406 19.439C31.0806 19.439 30.9506 19.309 30.9506 19.049L30.8726 12.77C30.8726 12.51 30.9983 12.38 31.2496 12.38H32.8356C33.0956 12.38 33.2213 12.51 33.2126 12.77L33.1606 14.876H34.2266C34.3653 14.876 34.4736 14.9193 34.5516 15.006C34.6383 15.084 34.6816 15.1923 34.6816 15.331V16.397C34.6816 16.5357 34.6383 16.6483 34.5516 16.735C34.4736 16.813 34.3653 16.852 34.2266 16.852H33.1216L33.0826 19.049C33.0653 19.309 32.9353 19.439 32.6926 19.439H31.3406ZM25.7636 21.805C25.547 21.805 25.4386 21.6967 25.4386 21.48V20.245C25.4386 20.0283 25.547 19.92 25.7636 19.92H32.1856C32.411 19.92 32.5973 19.985 32.7446 20.115C32.9006 20.2363 32.9743 20.4313 32.9656 20.7C32.9483 21.2547 32.931 21.7703 32.9136 22.247C32.8963 22.7237 32.8573 23.2263 32.7966 23.755C32.7793 23.8763 32.7403 23.9717 32.6796 24.041C32.619 24.1103 32.528 24.145 32.4066 24.145H31.1066C30.9853 24.145 30.89 24.1103 30.8206 24.041C30.7513 23.9717 30.7166 23.8763 30.7166 23.755V21.714L25.7636 21.805ZM24.6066 19.14C24.312 19.14 24.1083 19.0837 23.9956 18.971C23.8916 18.8583 23.8353 18.6547 23.8266 18.36L23.6316 13.069C23.6143 12.809 23.74 12.679 24.0086 12.679H25.3996C25.651 12.679 25.7766 12.809 25.7766 13.069V14.239L27.6616 14.226V13.043C27.6703 12.783 27.796 12.653 28.0386 12.653H29.4166C29.6766 12.653 29.8023 12.783 29.7936 13.043L29.7026 18.308C29.7026 18.6027 29.6463 18.8063 29.5336 18.919C29.4296 19.023 29.2303 19.0793 28.9356 19.088L24.6066 19.14ZM25.8026 17.346L27.6876 17.333L27.6746 15.955L25.7896 15.981L25.8026 17.346ZM36.7407 24.015C36.5414 24.0237 36.3854 23.9673 36.2727 23.846C36.16 23.7247 36.0994 23.5643 36.0907 23.365L36.0257 20.167C36.017 19.9677 36.0734 19.8117 36.1947 19.699C36.316 19.5863 36.4764 19.5257 36.6757 19.517L43.2017 19.4C43.401 19.3913 43.5614 19.4477 43.6827 19.569C43.804 19.6903 43.8604 19.8507 43.8517 20.05L43.7737 23.313C43.7564 23.729 43.5397 23.9457 43.1237 23.963L36.7407 24.015ZM38.2877 22.39L41.6807 22.377L41.6547 21.025L38.2617 21.051L38.2877 22.39ZM36.1687 14.343C35.952 14.343 35.8437 14.2347 35.8437 14.018V12.783C35.8437 12.5663 35.952 12.458 36.1687 12.458H43.2407C43.466 12.458 43.6524 12.523 43.7997 12.653C43.947 12.7743 44.0207 12.9693 44.0207 13.238V13.368C44.0207 13.81 43.986 14.291 43.9167 14.811C43.8474 15.3223 43.7304 15.773 43.5657 16.163C43.5224 16.2757 43.4617 16.3667 43.3837 16.436C43.3057 16.5053 43.1974 16.5357 43.0587 16.527L41.9797 16.488C41.8584 16.4793 41.776 16.4403 41.7327 16.371C41.698 16.3017 41.6894 16.1847 41.7067 16.02C41.7414 15.7773 41.763 15.4913 41.7717 15.162C41.7804 14.8327 41.776 14.5597 41.7587 14.343H36.1687ZM35.4797 18.724C35.3584 18.7327 35.263 18.7023 35.1937 18.633C35.1244 18.555 35.0897 18.4553 35.0897 18.334V17.333C35.0897 17.2117 35.1244 17.1163 35.1937 17.047C35.263 16.9777 35.3584 16.943 35.4797 16.943L44.3977 16.891C44.519 16.891 44.6144 16.9257 44.6837 16.995C44.753 17.0643 44.7877 17.1597 44.7877 17.281V18.139C44.7877 18.2603 44.753 18.3557 44.6837 18.425C44.6144 18.4857 44.519 18.5203 44.3977 18.529L35.4797 18.724ZM45.7323 17.086C45.7323 16.7827 45.8147 16.5573 45.9793 16.41C46.144 16.254 46.3607 16.176 46.6293 16.176L48.1503 16.163V14.902H46.3953C46.2567 14.902 46.144 14.863 46.0573 14.785C45.9793 14.6983 45.9403 14.5857 45.9403 14.447V13.498C45.9403 13.3593 45.9793 13.251 46.0573 13.173C46.144 13.0863 46.2567 13.043 46.3953 13.043L49.2553 13.069C49.524 13.069 49.7407 13.147 49.9053 13.303C50.0787 13.4503 50.161 13.6757 50.1523 13.979L50.1393 14.72C50.2087 14.694 50.2823 14.681 50.3603 14.681H51.5433L51.5303 13.29C51.5303 13.03 51.656 12.9 51.9073 12.9H53.3633C53.6233 12.9 53.749 13.03 53.7403 13.29L53.5843 22.364C53.5843 22.624 53.4543 22.754 53.1943 22.754H52.0503C51.7903 22.754 51.6603 22.624 51.6603 22.364L51.6213 19.777H50.8933L51.0493 20.57C51.084 20.8127 50.993 20.9643 50.7763 21.025C50.1523 21.1983 49.5023 21.3153 48.8263 21.376C48.159 21.4367 47.457 21.4583 46.7203 21.441C46.1137 21.4237 45.8103 21.1247 45.8103 20.544L45.7323 17.086ZM54.6373 22.754C54.3773 22.754 54.2473 22.624 54.2473 22.364V13.16C54.2473 12.9 54.373 12.77 54.6243 12.77H56.0803C56.3403 12.77 56.466 12.9 56.4573 13.16L56.1713 22.364C56.1713 22.624 56.0413 22.754 55.7813 22.754H54.6373ZM47.7733 19.439C48.224 19.4563 48.6617 19.4477 49.0863 19.413C49.355 19.3957 49.628 19.3697 49.9053 19.335V19.322V18.256C49.9053 18.1173 49.9443 18.009 50.0223 17.931C50.109 17.8443 50.2217 17.801 50.3603 17.801H51.5953L51.5693 16.657H50.3603C50.2737 16.657 50.1957 16.6397 50.1263 16.605V17.112C50.1177 17.398 50.0397 17.619 49.8923 17.775C49.745 17.931 49.5197 18.0133 49.2163 18.022L47.7733 18.061V19.439ZM26.5975 41.976C26.3028 41.9847 26.0775 41.911 25.9215 41.755C25.7742 41.599 25.6962 41.3737 25.6875 41.079L25.6095 38.245C25.5922 37.985 25.7178 37.855 25.9865 37.855H27.4165C27.6678 37.855 27.7935 37.985 27.7935 38.245L27.7675 40.104L32.7335 40.156C32.9848 40.156 33.1105 40.2687 33.1105 40.494V41.482C33.1105 41.7507 32.9935 41.885 32.7595 41.885L26.5975 41.976ZM31.3815 38.349C31.1215 38.349 30.9915 38.219 30.9915 37.959L30.9525 34.436H29.0025C28.8638 34.436 28.7512 34.397 28.6645 34.319C28.5865 34.2323 28.5475 34.1197 28.5475 33.981V32.902C28.5475 32.7633 28.5865 32.655 28.6645 32.577C28.7512 32.4903 28.8638 32.447 29.0025 32.447H30.9265L30.9135 30.77C30.9135 30.51 31.0392 30.38 31.2905 30.38H32.8765C33.1365 30.38 33.2622 30.51 33.2535 30.77L33.1235 37.959C33.1062 38.219 32.9762 38.349 32.7335 38.349H31.3815ZM22.8665 36.737C22.7972 36.659 22.7668 36.568 22.7755 36.464C22.7928 36.36 22.8535 36.2647 22.9575 36.178C23.3648 35.866 23.7202 35.5107 24.0235 35.112C24.3268 34.7133 24.5825 34.2973 24.7905 33.864C24.9985 33.422 25.1545 32.9713 25.2585 32.512C25.3712 32.0527 25.4362 31.602 25.4535 31.16C25.4622 30.9607 25.5142 30.8133 25.6095 30.718C25.7048 30.6227 25.8262 30.575 25.9735 30.575H27.3645C27.5378 30.575 27.6678 30.6313 27.7545 30.744C27.8412 30.848 27.8802 30.9867 27.8715 31.16C27.8195 32.0787 27.6115 32.967 27.2475 33.825C27.6462 34.1803 28.0665 34.4837 28.5085 34.735C28.9592 34.9777 29.4055 35.1857 29.8475 35.359C29.9775 35.411 30.0512 35.4933 30.0685 35.606C30.0858 35.71 30.0728 35.801 30.0295 35.879L29.4185 37.049C29.2972 37.257 29.1065 37.3047 28.8465 37.192C28.3785 37.01 27.9322 36.7803 27.5075 36.503C27.0915 36.2257 26.6928 35.879 26.3115 35.463C26.0255 35.853 25.7048 36.217 25.3495 36.555C24.9942 36.893 24.5998 37.2007 24.1665 37.478C24.0452 37.556 23.9282 37.5863 23.8155 37.569C23.7028 37.5517 23.6075 37.4997 23.5295 37.413L22.8665 36.737ZM38.868 41.781C38.582 41.5297 38.361 41.2307 38.205 40.884C38.049 40.546 37.971 40.182 37.971 39.792C37.971 39.402 38.049 39.0337 38.205 38.687C38.361 38.3317 38.582 38.024 38.868 37.764C39.154 37.504 39.492 37.296 39.882 37.14C40.2807 36.984 40.7183 36.906 41.195 36.906C41.663 36.906 42.092 36.984 42.482 37.14C42.8807 37.296 43.223 37.504 43.509 37.764C43.795 38.024 44.016 38.3317 44.172 38.687C44.328 39.0337 44.406 39.402 44.406 39.792C44.406 40.182 44.328 40.546 44.172 40.884C44.016 41.2307 43.795 41.5297 43.509 41.781C43.223 42.0323 42.8807 42.2317 42.482 42.379C42.092 42.5263 41.663 42.6 41.195 42.6C40.7183 42.6 40.2807 42.5263 39.882 42.379C39.492 42.2317 39.154 42.0323 38.868 41.781ZM39.921 39.792C39.921 40.13 40.0467 40.4117 40.298 40.637C40.5493 40.8623 40.8743 40.975 41.273 40.975C41.663 40.975 41.9837 40.8623 42.235 40.637C42.495 40.4117 42.625 40.13 42.625 39.792C42.625 39.454 42.495 39.1723 42.235 38.947C41.9837 38.713 41.663 38.596 41.273 38.596C40.857 38.596 40.5277 38.713 40.285 38.947C40.0423 39.1723 39.921 39.454 39.921 39.792ZM40.883 36.659C40.623 36.659 40.493 36.529 40.493 36.269L40.363 30.9C40.363 30.64 40.4887 30.51 40.74 30.51H42.131C42.391 30.51 42.5167 30.64 42.508 30.9L42.456 32.759H43.223V30.77C43.223 30.51 43.3487 30.38 43.6 30.38H44.991C45.251 30.38 45.3767 30.51 45.368 30.77L45.082 36.919C45.082 37.179 44.952 37.309 44.692 37.309H43.613C43.353 37.309 43.223 37.179 43.223 36.919V34.579H42.404L42.352 36.269C42.352 36.529 42.222 36.659 41.962 36.659H40.883ZM34.24 36.087C34.084 35.9137 34.1143 35.7273 34.331 35.528C34.955 34.93 35.423 34.2757 35.735 33.565C36.047 32.8543 36.216 32.0527 36.242 31.16C36.2507 30.9607 36.3027 30.8133 36.398 30.718C36.4933 30.6227 36.6147 30.575 36.762 30.575H38.075C38.2483 30.575 38.3783 30.6313 38.465 30.744C38.5603 30.848 38.5993 30.9867 38.582 31.16C38.556 31.5327 38.504 31.914 38.426 32.304C38.3567 32.6853 38.2527 33.071 38.114 33.461C38.426 33.7643 38.738 34.0287 39.05 34.254C39.3707 34.4707 39.6827 34.6657 39.986 34.839C40.22 34.969 40.2807 35.1423 40.168 35.359L39.297 36.399C39.1497 36.555 38.959 36.5593 38.725 36.412C38.1877 36.0827 37.685 35.671 37.217 35.177C36.775 35.8183 36.216 36.3687 35.54 36.828C35.41 36.9147 35.2887 36.9493 35.176 36.932C35.072 36.906 34.981 36.8497 34.903 36.763L34.24 36.087ZM49.257 42.158C49.0577 42.158 48.9017 42.0973 48.789 41.976C48.6763 41.8633 48.6157 41.7073 48.607 41.508L48.542 38.05C48.5333 37.8507 48.5897 37.6947 48.711 37.582C48.8323 37.4693 48.9927 37.4087 49.192 37.4L55.588 37.257C55.7873 37.2483 55.9477 37.3047 56.069 37.426C56.1903 37.5473 56.2467 37.7077 56.238 37.907L56.16 41.43C56.1513 41.6293 56.0907 41.7853 55.978 41.898C55.8653 42.0193 55.7093 42.08 55.51 42.08L49.257 42.158ZM50.778 40.403L54.067 40.364V39.012L50.778 39.064V40.403ZM54.652 36.659C54.392 36.659 54.262 36.529 54.262 36.269L54.184 30.77C54.184 30.51 54.3097 30.38 54.561 30.38H56.147C56.407 30.38 56.5327 30.51 56.524 30.77L56.394 36.269C56.3767 36.529 56.2467 36.659 56.004 36.659H54.652ZM47.099 35.502L46.969 30.965C46.9517 30.705 47.0773 30.575 47.346 30.575H48.776C48.906 30.575 48.997 30.6097 49.049 30.679C49.1097 30.7397 49.1443 30.835 49.153 30.965L49.192 34.631C49.7813 34.6397 50.401 34.618 51.051 34.566C51.701 34.5053 52.2903 34.4187 52.819 34.306C53.0703 34.2627 53.2133 34.3493 53.248 34.566L53.443 35.515C53.469 35.6537 53.456 35.7577 53.404 35.827C53.3607 35.8877 53.2827 35.9353 53.17 35.97C52.806 36.074 52.4117 36.165 51.987 36.243C51.571 36.321 51.1377 36.386 50.687 36.438C50.2363 36.4813 49.7813 36.516 49.322 36.542C48.8713 36.5593 48.4337 36.5637 48.009 36.555C47.411 36.5377 47.1077 36.2387 47.099 35.658V35.502Z" fill="white"/>
</svg>
