<svg width="80" height="98" viewBox="0 0 80 98" fill="none" xmlns="http://www.w3.org/2000/svg">
<rect width="80" height="97.5824" rx="20" fill="#75BEA1"/>
<path d="M40.9583 58.6667C42.1187 58.6667 43.2315 59.1276 44.0519 59.9481C44.8724 60.7685 45.3333 61.8813 45.3333 63.0417C45.3333 63.4284 45.487 63.7994 45.7605 64.0729C46.034 64.3464 46.4049 64.5 46.7917 64.5C47.1784 64.5 47.5494 64.3464 47.8229 64.0729C48.0964 63.7994 48.25 63.4284 48.25 63.0417C48.25 61.1078 47.4818 59.2531 46.1143 57.8857C44.7469 56.5182 42.8922 55.75 40.9583 55.75C40.5716 55.75 40.2006 55.9036 39.9271 56.1771C39.6536 56.4506 39.5 56.8216 39.5 57.2083C39.5 57.5951 39.6536 57.966 39.9271 58.2395C40.2006 58.513 40.5716 58.6667 40.9583 58.6667V58.6667Z" fill="white"/>
<path d="M40.9583 52.8332C43.6657 52.8332 46.2623 53.9087 48.1767 55.8231C50.0911 57.7376 51.1667 60.3341 51.1667 63.0415C51.1667 63.4283 51.3203 63.7992 51.5938 64.0727C51.8673 64.3462 52.2382 64.4998 52.625 64.4998C53.0118 64.4998 53.3827 64.3462 53.6562 64.0727C53.9297 63.7992 54.0833 63.4283 54.0833 63.0415C54.0833 59.5605 52.7005 56.2221 50.2391 53.7607C47.7777 51.2993 44.4393 49.9165 40.9583 49.9165C40.5716 49.9165 40.2006 50.0701 39.9271 50.3436C39.6536 50.6171 39.5 50.9881 39.5 51.3748C39.5 51.7616 39.6536 52.1325 39.9271 52.406C40.2006 52.6795 40.5716 52.8332 40.9583 52.8332V52.8332ZM53.7187 70.2019C53.6385 69.9678 53.5001 69.758 53.3164 69.5921C53.1327 69.4263 52.9098 69.3099 52.6687 69.254L43.9187 67.2561C43.6812 67.2022 43.434 67.2087 43.1997 67.275C42.9653 67.3412 42.7513 67.4651 42.5771 67.6353C42.3729 67.8248 42.3583 67.8394 41.4104 69.6478C38.2651 68.1984 35.7448 65.6678 34.3083 62.5165C36.1604 61.5832 36.175 61.5832 36.3646 61.3644C36.5348 61.1902 36.6587 60.9762 36.7249 60.7418C36.7911 60.5075 36.7976 60.2603 36.7437 60.0228L34.7458 51.3748C34.6899 51.1338 34.5735 50.9109 34.4077 50.7272C34.2419 50.5435 34.032 50.405 33.7979 50.3248C33.4573 50.2032 33.1057 50.1153 32.7479 50.0623C32.3793 49.9769 32.0032 49.928 31.625 49.9165C29.8458 49.9165 28.1395 50.6233 26.8815 51.8813C25.6234 53.1394 24.9167 54.8457 24.9167 56.6248C24.9244 62.5788 27.293 68.2867 31.5031 72.4968C35.7132 76.7068 41.421 79.0755 47.375 79.0832C48.2559 79.0832 49.1283 78.9097 49.9422 78.5725C50.7561 78.2354 51.4956 77.7413 52.1185 77.1183C52.7414 76.4954 53.2356 75.7559 53.5727 74.942C53.9098 74.1281 54.0833 73.2558 54.0833 72.3748C54.0838 72.0037 54.0545 71.633 53.9958 71.2665C53.9345 70.9043 53.8418 70.5481 53.7187 70.2019V70.2019Z" fill="white"/>
<path d="M27.3741 23.716C27.0968 23.4647 26.8801 23.1657 26.7241 22.819C26.5768 22.481 26.5031 22.117 26.5031 21.727C26.5031 21.337 26.5768 20.9687 26.7241 20.622C26.8801 20.2667 27.0968 19.959 27.3741 19.699C27.6514 19.439 27.9808 19.231 28.3621 19.075C28.7521 18.919 29.1811 18.841 29.6491 18.841C30.1084 18.841 30.5288 18.919 30.9101 19.075C31.3001 19.231 31.6294 19.439 31.8981 19.699C32.1754 19.959 32.3878 20.2667 32.5351 20.622C32.6911 20.9687 32.7691 21.337 32.7691 21.727C32.7691 22.117 32.6911 22.481 32.5351 22.819C32.3878 23.1657 32.1754 23.4647 31.8981 23.716C31.6294 23.9673 31.3001 24.1667 30.9101 24.314C30.5288 24.4613 30.1084 24.535 29.6491 24.535C29.1811 24.535 28.7521 24.4613 28.3621 24.314C27.9808 24.1667 27.6514 23.9673 27.3741 23.716ZM28.4531 21.727C28.4531 22.065 28.5701 22.3467 28.8041 22.572C29.0381 22.7973 29.3458 22.91 29.7271 22.91C30.0998 22.91 30.4031 22.7973 30.6371 22.572C30.8711 22.3467 30.9881 22.065 30.9881 21.727C30.9881 21.389 30.8711 21.1073 30.6371 20.882C30.4031 20.648 30.0998 20.531 29.7271 20.531C29.3284 20.531 29.0164 20.648 28.7911 20.882C28.5658 21.1073 28.4531 21.389 28.4531 21.727ZM31.2741 18.789C31.0141 18.789 30.8841 18.659 30.8841 18.399L30.8061 12.77C30.8061 12.51 30.9318 12.38 31.1831 12.38H32.7691C33.0291 12.38 33.1548 12.51 33.1461 12.77L33.1071 14.551H34.2901C34.4288 14.551 34.5371 14.5943 34.6151 14.681C34.7018 14.759 34.7451 14.8673 34.7451 15.006V16.072C34.7451 16.2107 34.7018 16.3233 34.6151 16.41C34.5371 16.488 34.4288 16.527 34.2901 16.527H33.0551L33.0161 18.399C32.9988 18.659 32.8688 18.789 32.6261 18.789H31.2741ZM26.0741 18.659C25.9528 18.607 25.8834 18.5247 25.8661 18.412C25.8574 18.2907 25.8878 18.1607 25.9571 18.022C26.1824 17.528 26.3688 16.995 26.5161 16.423C26.6634 15.8423 26.7588 15.266 26.8021 14.694H23.7471C23.5304 14.694 23.4221 14.5857 23.4221 14.369V13.134C23.4221 12.9173 23.5304 12.809 23.7471 12.809H28.4791C28.7044 12.809 28.8908 12.874 29.0381 13.004C29.1854 13.1253 29.2591 13.3203 29.2591 13.589V13.719C29.2591 14.135 29.2201 14.5727 29.1421 15.032C29.0641 15.4827 28.9558 15.9333 28.8171 16.384C28.6784 16.8347 28.5094 17.2723 28.3101 17.697C28.1194 18.1217 27.9114 18.503 27.6861 18.841C27.6254 18.9277 27.5431 19.0057 27.4391 19.075C27.3351 19.1357 27.2224 19.1357 27.1011 19.075L26.0741 18.659ZM37.2332 16.475C36.9125 16.215 36.6699 15.916 36.5052 15.578C36.3405 15.2313 36.2582 14.8673 36.2582 14.486C36.2582 14.096 36.3405 13.732 36.5052 13.394C36.6699 13.0473 36.9125 12.7483 37.2332 12.497C37.5539 12.237 37.9439 12.0333 38.4032 11.886C38.8712 11.7387 39.4042 11.665 40.0022 11.665C40.6002 11.665 41.1289 11.7387 41.5882 11.886C42.0562 12.0333 42.4505 12.237 42.7712 12.497C43.0919 12.7483 43.3345 13.0473 43.4992 13.394C43.6639 13.732 43.7462 14.096 43.7462 14.486C43.7462 14.8673 43.6639 15.2313 43.4992 15.578C43.3345 15.916 43.0919 16.215 42.7712 16.475C42.4505 16.7263 42.0562 16.93 41.5882 17.086C41.1289 17.2333 40.6002 17.307 40.0022 17.307C39.4042 17.307 38.8712 17.2333 38.4032 17.086C37.9439 16.93 37.5539 16.7263 37.2332 16.475ZM38.5592 14.707C38.5592 15.0363 38.6979 15.3137 38.9752 15.539C39.2525 15.7557 39.6165 15.864 40.0672 15.864C40.5092 15.864 40.8689 15.7557 41.1462 15.539C41.4322 15.3137 41.5752 15.0363 41.5752 14.707C41.5752 14.3777 41.4365 14.1047 41.1592 13.888C40.8819 13.6627 40.5179 13.55 40.0672 13.55C39.6252 13.55 39.2612 13.6627 38.9752 13.888C38.6979 14.1047 38.5592 14.3777 38.5592 14.707ZM35.5432 19.569C35.4219 19.5777 35.3265 19.5473 35.2572 19.478C35.1879 19.4 35.1532 19.3003 35.1532 19.179V18.243C35.1532 18.1217 35.1879 18.0263 35.2572 17.957C35.3265 17.8877 35.4219 17.853 35.5432 17.853L44.4612 17.801C44.5825 17.801 44.6779 17.8357 44.7472 17.905C44.8165 17.9743 44.8512 18.0697 44.8512 18.191V18.984C44.8512 19.1053 44.8165 19.2007 44.7472 19.27C44.6779 19.3307 44.5825 19.3653 44.4612 19.374L35.5432 19.569ZM37.1942 23.846C36.8995 23.8547 36.6742 23.781 36.5182 23.625C36.3709 23.469 36.2929 23.2437 36.2842 22.949L36.2192 20.57C36.2019 20.31 36.3275 20.18 36.5962 20.18L38.1042 20.154C38.3555 20.154 38.4812 20.284 38.4812 20.544L38.4942 21.974L43.5902 22.026C43.8415 22.026 43.9672 22.1387 43.9672 22.364V23.352C43.9672 23.6207 43.8502 23.755 43.6162 23.755L37.1942 23.846ZM45.6268 20.986C45.6268 20.8647 45.6615 20.7693 45.7308 20.7C45.8001 20.6307 45.8955 20.596 46.0168 20.596C46.3548 20.596 46.6841 20.596 47.0048 20.596C47.3341 20.5873 47.6591 20.5787 47.9798 20.57L47.9668 19.478C47.9061 19.4607 47.8455 19.439 47.7848 19.413C47.4121 19.283 47.0871 19.0967 46.8098 18.854C46.5411 18.6113 46.3288 18.3167 46.1728 17.97C46.0168 17.6147 45.9388 17.2117 45.9388 16.761C45.9388 16.2323 46.0818 15.7513 46.3678 15.318L45.7568 15.331C45.6355 15.331 45.5401 15.2963 45.4708 15.227C45.4015 15.1577 45.3668 15.0623 45.3668 14.941V13.901C45.3668 13.7797 45.4015 13.6843 45.4708 13.615C45.5401 13.5457 45.6355 13.511 45.7568 13.511H47.8108L47.8758 12.367C47.8931 12.0723 48.0578 11.9467 48.3698 11.99L49.8258 12.185C50.1118 12.2197 50.2375 12.3843 50.2028 12.679L50.0858 13.498H52.2048C52.4215 13.498 52.5298 13.6063 52.5298 13.823V14.85C52.5298 15.0667 52.4215 15.175 52.2048 15.175L51.5028 15.201C51.6675 15.4177 51.7932 15.656 51.8798 15.916C51.9752 16.176 52.0228 16.4577 52.0228 16.761C52.0228 17.2117 51.9448 17.6147 51.7888 17.97C51.6328 18.3167 51.4205 18.6113 51.1518 18.854C50.8832 19.0967 50.5625 19.283 50.1898 19.413C50.1551 19.4303 50.1205 19.4433 50.0858 19.452L50.0728 20.44C50.4108 20.414 50.7445 20.3793 51.0738 20.336C51.4118 20.2927 51.7498 20.245 52.0878 20.193C52.3045 20.1583 52.4388 20.2623 52.4908 20.505L52.6468 21.337C52.6728 21.4583 52.6511 21.5493 52.5818 21.61C52.5125 21.6707 52.4258 21.714 52.3218 21.74C51.4292 21.9567 50.4412 22.1083 49.3578 22.195C48.2831 22.2903 47.1695 22.3423 46.0168 22.351C45.8955 22.351 45.8001 22.3163 45.7308 22.247C45.6615 22.1777 45.6268 22.0823 45.6268 21.961V20.986ZM53.5308 22.754C53.2708 22.754 53.1408 22.624 53.1408 22.364V13.16C53.1408 12.9 53.2665 12.77 53.5178 12.77H55.1038C55.3638 12.77 55.4895 12.9 55.4808 13.16L55.3768 16.319L56.4688 16.306C56.6075 16.306 56.7158 16.3493 56.7938 16.436C56.8805 16.514 56.9238 16.6223 56.9238 16.761V17.827C56.9238 17.9657 56.8805 18.0783 56.7938 18.165C56.7158 18.243 56.6075 18.282 56.4688 18.282L55.3118 18.308L55.1948 22.364C55.1948 22.624 55.0648 22.754 54.8048 22.754H53.5308ZM47.9928 17.32C48.0621 17.4847 48.1531 17.6233 48.2658 17.736C48.3871 17.8487 48.5215 17.9353 48.6688 17.996C48.8248 18.048 48.9808 18.074 49.1368 18.074C49.2841 18.074 49.4315 18.048 49.5788 17.996C49.7348 17.9353 49.8692 17.8487 49.9818 17.736C50.1031 17.6233 50.1985 17.4847 50.2678 17.32C50.3458 17.1553 50.3848 16.969 50.3848 16.761C50.3848 16.553 50.3458 16.3667 50.2678 16.202C50.1985 16.0373 50.1031 15.903 49.9818 15.799C49.8692 15.6863 49.7348 15.5997 49.5788 15.539C49.4315 15.4783 49.2841 15.448 49.1368 15.448C48.9808 15.448 48.8248 15.4783 48.6688 15.539C48.5215 15.5997 48.3871 15.6863 48.2658 15.799C48.1531 15.903 48.0621 16.0373 47.9928 16.202C47.9235 16.3667 47.8888 16.553 47.8888 16.761C47.8888 16.969 47.9235 17.1553 47.9928 17.32ZM26.5975 41.976C26.3028 41.9847 26.0775 41.911 25.9215 41.755C25.7742 41.599 25.6962 41.3737 25.6875 41.079L25.6095 38.245C25.5922 37.985 25.7178 37.855 25.9865 37.855H27.4165C27.6678 37.855 27.7935 37.985 27.7935 38.245L27.7675 40.104L32.7335 40.156C32.9848 40.156 33.1105 40.2687 33.1105 40.494V41.482C33.1105 41.7507 32.9935 41.885 32.7595 41.885L26.5975 41.976ZM31.3815 38.349C31.1215 38.349 30.9915 38.219 30.9915 37.959L30.9525 34.436H29.0025C28.8638 34.436 28.7512 34.397 28.6645 34.319C28.5865 34.2323 28.5475 34.1197 28.5475 33.981V32.902C28.5475 32.7633 28.5865 32.655 28.6645 32.577C28.7512 32.4903 28.8638 32.447 29.0025 32.447H30.9265L30.9135 30.77C30.9135 30.51 31.0392 30.38 31.2905 30.38H32.8765C33.1365 30.38 33.2622 30.51 33.2535 30.77L33.1235 37.959C33.1062 38.219 32.9762 38.349 32.7335 38.349H31.3815ZM22.8665 36.737C22.7972 36.659 22.7668 36.568 22.7755 36.464C22.7928 36.36 22.8535 36.2647 22.9575 36.178C23.3648 35.866 23.7202 35.5107 24.0235 35.112C24.3268 34.7133 24.5825 34.2973 24.7905 33.864C24.9985 33.422 25.1545 32.9713 25.2585 32.512C25.3712 32.0527 25.4362 31.602 25.4535 31.16C25.4622 30.9607 25.5142 30.8133 25.6095 30.718C25.7048 30.6227 25.8262 30.575 25.9735 30.575H27.3645C27.5378 30.575 27.6678 30.6313 27.7545 30.744C27.8412 30.848 27.8802 30.9867 27.8715 31.16C27.8195 32.0787 27.6115 32.967 27.2475 33.825C27.6462 34.1803 28.0665 34.4837 28.5085 34.735C28.9592 34.9777 29.4055 35.1857 29.8475 35.359C29.9775 35.411 30.0512 35.4933 30.0685 35.606C30.0858 35.71 30.0728 35.801 30.0295 35.879L29.4185 37.049C29.2972 37.257 29.1065 37.3047 28.8465 37.192C28.3785 37.01 27.9322 36.7803 27.5075 36.503C27.0915 36.2257 26.6928 35.879 26.3115 35.463C26.0255 35.853 25.7048 36.217 25.3495 36.555C24.9942 36.893 24.5998 37.2007 24.1665 37.478C24.0452 37.556 23.9282 37.5863 23.8155 37.569C23.7028 37.5517 23.6075 37.4997 23.5295 37.413L22.8665 36.737ZM38.868 41.781C38.582 41.5297 38.361 41.2307 38.205 40.884C38.049 40.546 37.971 40.182 37.971 39.792C37.971 39.402 38.049 39.0337 38.205 38.687C38.361 38.3317 38.582 38.024 38.868 37.764C39.154 37.504 39.492 37.296 39.882 37.14C40.2807 36.984 40.7183 36.906 41.195 36.906C41.663 36.906 42.092 36.984 42.482 37.14C42.8807 37.296 43.223 37.504 43.509 37.764C43.795 38.024 44.016 38.3317 44.172 38.687C44.328 39.0337 44.406 39.402 44.406 39.792C44.406 40.182 44.328 40.546 44.172 40.884C44.016 41.2307 43.795 41.5297 43.509 41.781C43.223 42.0323 42.8807 42.2317 42.482 42.379C42.092 42.5263 41.663 42.6 41.195 42.6C40.7183 42.6 40.2807 42.5263 39.882 42.379C39.492 42.2317 39.154 42.0323 38.868 41.781ZM39.921 39.792C39.921 40.13 40.0467 40.4117 40.298 40.637C40.5493 40.8623 40.8743 40.975 41.273 40.975C41.663 40.975 41.9837 40.8623 42.235 40.637C42.495 40.4117 42.625 40.13 42.625 39.792C42.625 39.454 42.495 39.1723 42.235 38.947C41.9837 38.713 41.663 38.596 41.273 38.596C40.857 38.596 40.5277 38.713 40.285 38.947C40.0423 39.1723 39.921 39.454 39.921 39.792ZM40.883 36.659C40.623 36.659 40.493 36.529 40.493 36.269L40.363 30.9C40.363 30.64 40.4887 30.51 40.74 30.51H42.131C42.391 30.51 42.5167 30.64 42.508 30.9L42.456 32.759H43.223V30.77C43.223 30.51 43.3487 30.38 43.6 30.38H44.991C45.251 30.38 45.3767 30.51 45.368 30.77L45.082 36.919C45.082 37.179 44.952 37.309 44.692 37.309H43.613C43.353 37.309 43.223 37.179 43.223 36.919V34.579H42.404L42.352 36.269C42.352 36.529 42.222 36.659 41.962 36.659H40.883ZM34.24 36.087C34.084 35.9137 34.1143 35.7273 34.331 35.528C34.955 34.93 35.423 34.2757 35.735 33.565C36.047 32.8543 36.216 32.0527 36.242 31.16C36.2507 30.9607 36.3027 30.8133 36.398 30.718C36.4933 30.6227 36.6147 30.575 36.762 30.575H38.075C38.2483 30.575 38.3783 30.6313 38.465 30.744C38.5603 30.848 38.5993 30.9867 38.582 31.16C38.556 31.5327 38.504 31.914 38.426 32.304C38.3567 32.6853 38.2527 33.071 38.114 33.461C38.426 33.7643 38.738 34.0287 39.05 34.254C39.3707 34.4707 39.6827 34.6657 39.986 34.839C40.22 34.969 40.2807 35.1423 40.168 35.359L39.297 36.399C39.1497 36.555 38.959 36.5593 38.725 36.412C38.1877 36.0827 37.685 35.671 37.217 35.177C36.775 35.8183 36.216 36.3687 35.54 36.828C35.41 36.9147 35.2887 36.9493 35.176 36.932C35.072 36.906 34.981 36.8497 34.903 36.763L34.24 36.087ZM49.257 42.158C49.0577 42.158 48.9017 42.0973 48.789 41.976C48.6763 41.8633 48.6157 41.7073 48.607 41.508L48.542 38.05C48.5333 37.8507 48.5897 37.6947 48.711 37.582C48.8323 37.4693 48.9927 37.4087 49.192 37.4L55.588 37.257C55.7873 37.2483 55.9477 37.3047 56.069 37.426C56.1903 37.5473 56.2467 37.7077 56.238 37.907L56.16 41.43C56.1513 41.6293 56.0907 41.7853 55.978 41.898C55.8653 42.0193 55.7093 42.08 55.51 42.08L49.257 42.158ZM50.778 40.403L54.067 40.364V39.012L50.778 39.064V40.403ZM54.652 36.659C54.392 36.659 54.262 36.529 54.262 36.269L54.184 30.77C54.184 30.51 54.3097 30.38 54.561 30.38H56.147C56.407 30.38 56.5327 30.51 56.524 30.77L56.394 36.269C56.3767 36.529 56.2467 36.659 56.004 36.659H54.652ZM47.099 35.502L46.969 30.965C46.9517 30.705 47.0773 30.575 47.346 30.575H48.776C48.906 30.575 48.997 30.6097 49.049 30.679C49.1097 30.7397 49.1443 30.835 49.153 30.965L49.192 34.631C49.7813 34.6397 50.401 34.618 51.051 34.566C51.701 34.5053 52.2903 34.4187 52.819 34.306C53.0703 34.2627 53.2133 34.3493 53.248 34.566L53.443 35.515C53.469 35.6537 53.456 35.7577 53.404 35.827C53.3607 35.8877 53.2827 35.9353 53.17 35.97C52.806 36.074 52.4117 36.165 51.987 36.243C51.571 36.321 51.1377 36.386 50.687 36.438C50.2363 36.4813 49.7813 36.516 49.322 36.542C48.8713 36.5593 48.4337 36.5637 48.009 36.555C47.411 36.5377 47.1077 36.2387 47.099 35.658V35.502Z" fill="white"/>
</svg>
